<?xml version="1.0" encoding="UTF-8" standalone="no"?>
<!-- Created with Inkscape (http://www.inkscape.org/) -->

<svg
   xmlns:dc="http://purl.org/dc/elements/1.1/"
   xmlns:cc="http://creativecommons.org/ns#"
   xmlns:rdf="http://www.w3.org/1999/02/22-rdf-syntax-ns#"
   xmlns:svg="http://www.w3.org/2000/svg"
   xmlns="http://www.w3.org/2000/svg"
   xmlns:sodipodi="http://sodipodi.sourceforge.net/DTD/sodipodi-0.dtd"
   xmlns:inkscape="http://www.inkscape.org/namespaces/inkscape"
   width="400"
   height="200"
   id="svg2"
   version="1.1"
   inkscape:version="0.48.4 r9939"
   sodipodi:docname="mass-spectrum-ch4-ch2-h2.svg"
   inkscape:export-filename="/home/daisycutter/github/nlesc/collab-demos/demos/emetabolomics/mass-spectrum-ch4.png"
   inkscape:export-xdpi="300"
   inkscape:export-ydpi="300">
  <defs
     id="defs4" />
  <sodipodi:namedview
     id="base"
     pagecolor="#ffffff"
     bordercolor="#666666"
     borderopacity="1.0"
     inkscape:pageopacity="0.0"
     inkscape:pageshadow="2"
     inkscape:zoom="3.6425"
     inkscape:cx="200"
     inkscape:cy="100"
     inkscape:document-units="px"
     inkscape:current-layer="layer1"
     showgrid="false"
     inkscape:window-width="1876"
     inkscape:window-height="972"
     inkscape:window-x="20"
     inkscape:window-y="52"
     inkscape:window-maximized="0" />
  <metadata
     id="metadata7">
    <rdf:RDF>
      <cc:Work
         rdf:about="">
        <dc:format>image/svg+xml</dc:format>
        <dc:type
           rdf:resource="http://purl.org/dc/dcmitype/StillImage" />
        <dc:title></dc:title>
      </cc:Work>
    </rdf:RDF>
  </metadata>
  <g
     inkscape:label="Layer 1"
     inkscape:groupmode="layer"
     id="layer1"
     transform="translate(0,-852.36218)">
    <path
       style="fill:none;stroke:#000000;stroke-width:1px;stroke-linecap:butt;stroke-linejoin:miter;stroke-opacity:1"
       d="m 119.77659,987.75092 153.6193,0"
       id="path2985"
       inkscape:connector-curvature="0" />
    <path
       style="fill:none;stroke:#000000;stroke-width:1px;stroke-linecap:butt;stroke-linejoin:miter;stroke-opacity:1"
       d="m 125.73727,141.55496 0,-85.254692"
       id="path2987"
       inkscape:connector-curvature="0"
       transform="translate(0,852.36218)" />
    <g
       transform="matrix(0.5,0,0,0.5,151.67492,936.08786)"
       style="font-size:20px;font-style:normal;font-variant:normal;font-weight:200;font-stretch:normal;line-height:125%;letter-spacing:0px;word-spacing:0px;fill:#000000;fill-opacity:1;stroke:none;font-family:Akkurat-Light;-inkscape-font-specification:Akkurat-Light Ultra-Light"
       id="flowRoot2991">
      <path
         d="m 250.855,162.42525 -1.02,0 0,-12.68 -5.18,12.48 -0.92,0 -5.18,-12.38 0,12.58 -1.02,0 0,-14.18 1.46,0 5.24,12.6 5.14,-12.6 1.48,0 0,14.18"
         style=""
         id="path4026" />
      <path
         d="m 260.71125,147.98525 -6.26,14.7 -0.92,0 6.26,-14.7 0.92,0"
         style=""
         id="path4028" />
      <path
         d="m 269.72094,162.42525 -7.54,0 0,-1.12 6.4,-7.94 -6.4,0 0,-0.94 7.48,0 0,1.1 -6.4,7.94 6.46,0 0,0.96"
         style=""
         id="path4030" />
    </g>
    <g
       transform="matrix(0,-0.5,0.5,0,60.247822,1007.489)"
       style="font-size:20px;font-style:normal;font-variant:normal;font-weight:200;font-stretch:normal;line-height:125%;letter-spacing:0px;word-spacing:0px;fill:#000000;fill-opacity:1;stroke:none;font-family:Akkurat-Light;-inkscape-font-specification:Akkurat-Light Ultra-Light"
       id="flowRoot2999">
      <path
         d="m 92.75125,94.862748 -1.06,0 0,-14.18 1.06,0 0,14.18"
         style=""
         id="path3996" />
      <path
         d="m 104.80187,94.862748 -1,0 0,-6.54 c 0,-1.826658 -0.86,-2.739991 -2.58,-2.74 -1.14667,9e-6 -1.986666,0.413342 -2.519995,1.24 -0.533337,0.81334 -0.800003,1.826673 -0.8,3.04 l 0,5 -1,0 0,-10 0.88,0 0.12,1.82 c 0.279997,-0.626658 0.73333,-1.126657 1.36,-1.5 0.639995,-0.386657 1.313325,-0.57999 2.020005,-0.58 1.13332,10e-6 1.99999,0.326677 2.6,0.98 0.61332,0.653342 0.91999,1.546674 0.91999,2.68 l 0,6.6"
         style=""
         id="path3998" />
      <path
         d="m 113.32156,94.762748 c -0.74667,0.16 -1.3,0.24 -1.66,0.24 -1.72,0 -2.58,-0.973333 -2.58,-2.92 l 0,-6.3 -2,0 0,-0.92 2,0 0,-2.76 1,-0.24 0,3 3.1,0 0,0.92 -3.1,0 0,6.26 c 0,0.653335 0.12,1.153335 0.36,1.5 0.24,0.346668 0.67333,0.520001 1.3,0.52 0.4,10e-7 0.92666,-0.06 1.58,-0.18 l 0,0.88"
         style=""
         id="path4000" />
      <path
         d="m 123.76438,89.442748 c -1e-5,0.08 -0.007,0.193338 -0.02,0.34 -1e-5,0.133338 -1e-5,0.240005 0,0.32 l -7.64,0 c 0.0267,1.200003 0.37333,2.200002 1.03999,3 0.6,0.706668 1.40667,1.060001 2.42,1.06 0.89333,1e-6 1.62,-0.293332 2.18001,-0.88 0.39999,-0.426665 0.65332,-0.899998 0.75999,-1.42 l 1.04001,0 c -0.13335,0.800002 -0.50668,1.500001 -1.12001,2.1 -0.77334,0.773333 -1.72667,1.16 -2.86,1.16 -1.29333,0 -2.35333,-0.473333 -3.17999,-1.42 -0.85334,-0.999998 -1.28001,-2.266663 -1.28,-3.8 -1e-5,-1.479994 0.32666,-2.666659 0.97999,-3.56 0.85334,-1.15999 1.98667,-1.73999 3.40001,-1.74 1.29332,10e-6 2.32665,0.48001 3.09999,1.44 0.78666,0.946674 1.18,2.080007 1.18001,3.4 m -1.02,-0.26 c -0.0267,-0.999993 -0.33335,-1.853326 -0.92,-2.56 -0.58668,-0.719991 -1.36668,-1.079991 -2.34,-1.08 -1.00001,9e-6 -1.81334,0.353342 -2.44,1.06 -0.61334,0.693341 -0.92001,1.55334 -0.92,2.58 l 6.62,0"
         style=""
         id="path4002" />
      <path
         d="m 134.64562,94.862748 -1,0 0,-6.54 c 0,-1.826658 -0.86,-2.739991 -2.58,-2.74 -1.14667,9e-6 -1.98667,0.413342 -2.52,1.24 -0.53333,0.81334 -0.8,1.826673 -0.79999,3.04 l 0,5 -1,0 0,-10 0.88,0 0.12,1.82 c 0.27999,-0.626658 0.73332,-1.126657 1.35999,-1.5 0.64,-0.386657 1.31333,-0.57999 2.02001,-0.58 1.13332,10e-6 1.99999,0.326677 2.59999,0.98 0.61333,0.653342 0.92,1.546674 0.92,2.68 l 0,6.6"
         style=""
         id="path4004" />
      <path
         d="m 145.56531,92.082748 c -1e-5,0.706669 -0.22667,1.320001 -0.68,1.84 -0.72001,0.8 -1.8,1.2 -3.24,1.2 -1.42667,0 -2.52,-0.426667 -3.28,-1.28 -0.52,-0.599998 -0.8,-1.273331 -0.84,-2.02 l 1.02,0 c 0.0533,0.586669 0.3,1.100002 0.74,1.54 0.54667,0.533334 1.33333,0.800001 2.36,0.8 1.08,1e-6 1.86666,-0.246666 2.36,-0.74 0.35999,-0.359998 0.53999,-0.786665 0.54,-1.28 -1e-5,-0.466664 -0.16001,-0.866663 -0.48,-1.2 -0.32,-0.333329 -0.77334,-0.539996 -1.36,-0.62 l -1.94,-0.26 c -1.04,-0.119995 -1.79333,-0.453328 -2.26,-1 -0.37333,-0.439994 -0.56,-0.96666 -0.56,-1.58 0,-0.759992 0.28667,-1.406658 0.86,-1.94 0.68,-0.626657 1.59333,-0.93999 2.74,-0.94 1.34666,10e-6 2.35333,0.393343 3.02,1.18 0.47999,0.573342 0.73333,1.186674 0.76,1.84 l -1,0 c -0.0533,-0.479992 -0.22001,-0.879992 -0.5,-1.2 -0.49334,-0.586658 -1.25334,-0.879991 -2.28,-0.88 -0.77334,9e-6 -1.37333,0.153342 -1.8,0.46 -0.52,0.373342 -0.78,0.833341 -0.78,1.38 0,0.45334 0.14,0.826673 0.42,1.12 0.29333,0.280006 0.8,0.466672 1.52,0.56 l 1.9,0.26 c 0.89333,0.120005 1.57333,0.446672 2.04,0.98 0.47999,0.520004 0.71999,1.113337 0.72,1.78"
         style=""
         id="path4006" />
      <path
         d="m 149.97969,82.082748 -1.4,0 0,-1.4 1.4,0 0,1.4 m -0.16,12.78 -1.06,0 0,-10 1.06,0 0,10"
         style=""
         id="path4008" />
      <path
         d="m 158.595,94.762748 c -0.74667,0.16 -1.30001,0.24 -1.66,0.24 -1.72,0 -2.58,-0.973333 -2.58,-2.92 l 0,-6.3 -2,0 0,-0.92 2,0 0,-2.76 1,-0.24 0,3 3.1,0 0,0.92 -3.1,0 0,6.26 c 0,0.653335 0.12,1.153335 0.36,1.5 0.24,0.346668 0.67333,0.520001 1.3,0.52 0.39999,10e-7 0.92666,-0.06 1.58,-0.18 l 0,0.88"
         style=""
         id="path4010" />
      <path
         d="m 168.59781,84.862748 -4.64,12.14 c -0.52,1.359996 -1.42,2.039996 -2.7,2.04 -0.24,-4e-6 -0.46667,-0.02 -0.68,-0.06 -0.2,-0.02667 -0.34667,-0.05334 -0.44,-0.08 l -0.14,-0.04 0,-0.84 c 0.46667,0.08 0.87333,0.119997 1.22,0.12 0.82667,-3e-6 1.43333,-0.493336 1.82,-1.48 l 0.64,-1.64 -4.1,-10.16 1.08,0 3.5,8.88 3.36,-8.88 1.08,0"
         style=""
         id="path4012" />
    </g>
    <path
       style="fill:none;stroke:#000000;stroke-width:0.5;stroke-linecap:butt;stroke-linejoin:miter;stroke-miterlimit:4;stroke-opacity:1;stroke-dasharray:none"
       d="m 217.02938,987.28186 0,-69.5895"
       id="path2987-8"
       inkscape:connector-curvature="0"
       sodipodi:nodetypes="cc" />
    <g
       transform="matrix(0.5,0,0,0.5,89.942048,932.56715)"
       style="font-size:20px;font-style:normal;font-variant:normal;font-weight:200;font-stretch:normal;line-height:125%;letter-spacing:0px;word-spacing:0px;fill:#000000;fill-opacity:1;stroke:none;font-family:Akkurat-Light;-inkscape-font-specification:Akkurat-Light Ultra-Light"
       id="flowRoot2991-4">
      <path
         d="m 240.863,158.8402 -0.8,0 0,-10.128 -2.768,2.032 0,-0.896 2.848,-2.128 0.72,0 0,11.12"
         style="font-size:16px"
         id="path4015"
         inkscape:connector-curvature="0" />
      <path
         d="m 252.64475,155.3202 c -10e-6,1.056 -0.30934,1.94133 -0.928,2.656 -0.61867,0.71467 -1.45601,1.072 -2.512,1.072 -1.10934,0 -1.984,-0.45333 -2.624,-1.36 -0.65067,-0.90667 -0.976,-2.384 -0.976,-4.432 0,-2.25066 0.40533,-3.81866 1.216,-4.704 0.64,-0.70399 1.42933,-1.05599 2.368,-1.056 0.89599,1e-5 1.63733,0.26668 2.224,0.8 0.59733,0.53334 0.91733,1.23201 0.96,2.096 l -0.832,0 c -0.0427,-0.65066 -0.27201,-1.16799 -0.688,-1.552 -0.41601,-0.38399 -0.97067,-0.57599 -1.664,-0.576 -0.71467,1e-5 -1.30134,0.25068 -1.76,0.752 -0.66134,0.71467 -0.992,2.16534 -0.992,4.352 0.224,-0.512 0.58666,-0.928 1.088,-1.248 0.50133,-0.33066 1.056,-0.49599 1.664,-0.496 1.07733,1e-5 1.91999,0.34134 2.528,1.024 0.61866,0.672 0.92799,1.56267 0.928,2.672 m -1.472,2.112 c 0.43733,-0.576 0.65599,-1.28 0.656,-2.112 -1e-5,-0.832 -0.22401,-1.53066 -0.672,-2.096 -0.43734,-0.576 -1.08801,-0.864 -1.952,-0.864 -0.66134,0 -1.22667,0.224 -1.696,0.672 -0.56534,0.544 -0.848,1.296 -0.848,2.256 0,0.82133 0.224,1.52533 0.672,2.112 0.45866,0.58667 1.088,0.88 1.888,0.88 0.86399,0 1.51466,-0.28267 1.952,-0.848"
         style="font-size:16px"
         id="path4017"
         inkscape:connector-curvature="0" />
      <path
         d="m 256.3785,158.8402 -1.408,0 0,-1.44 1.408,0 0,1.44"
         style="font-size:16px"
         id="path4019"
         inkscape:connector-curvature="0" />
      <path
         d="m 264.58125,148.3922 c 0.87466,0.84267 1.31199,2.46934 1.312,4.88 -1e-5,2.41067 -0.43734,4.03733 -1.312,4.88 -0.61867,0.59733 -1.37067,0.896 -2.256,0.896 -0.88534,0 -1.63734,-0.29867 -2.256,-0.896 -0.87467,-0.84267 -1.312,-2.46933 -1.312,-4.88 0,-2.41066 0.43733,-4.03733 1.312,-4.88 0.61866,-0.59732 1.37066,-0.89599 2.256,-0.896 0.88533,1e-5 1.63733,0.29868 2.256,0.896 m 0.448,6.496 c 0.032,-0.42666 0.048,-0.96533 0.048,-1.616 -10e-6,-0.65066 -0.016,-1.18399 -0.048,-1.6 -0.0213,-0.42666 -0.11734,-0.91733 -0.288,-1.472 -0.16001,-0.56533 -0.39467,-0.99733 -0.704,-1.296 -0.44801,-0.42666 -1.01867,-0.63999 -1.712,-0.64 -0.69334,1e-5 -1.264,0.21334 -1.712,0.64 -0.30934,0.29867 -0.54934,0.73067 -0.72,1.296 -0.16,0.55467 -0.256,1.04534 -0.288,1.472 -0.0213,0.41601 -0.032,0.94934 -0.032,1.6 0,0.65067 0.0107,1.18934 0.032,1.616 0.032,0.416 0.128,0.90667 0.288,1.472 0.17066,0.55467 0.41066,0.98133 0.72,1.28 0.448,0.42667 1.01866,0.64 1.712,0.64 0.69333,0 1.26399,-0.21333 1.712,-0.64 0.30933,-0.29867 0.54399,-0.72533 0.704,-1.28 0.17066,-0.56533 0.26666,-1.056 0.288,-1.472"
         style="font-size:16px"
         id="path4021"
         inkscape:connector-curvature="0" />
      <path
         d="m 275.355,156.2962 -1.552,0 0,2.544 -0.816,0 0,-2.544 -5.248,0 0,-0.88 4.528,-7.696 0.912,0 -4.576,7.776 4.384,0 0,-3.44 0.816,0 0,3.44 1.552,0 0,0.8"
         style="font-size:16px"
         id="path4023"
         inkscape:connector-curvature="0" />
    </g>
    <g
       id="g3987"
       transform="translate(-1.921757,-1.921757)">
      <path
         inkscape:connector-curvature="0"
         id="path3923-2"
         d="m 311.14627,1016.3979 -5.134,-2.0725 1.0939,2.0725 -1.0939,2.0725 5.134,-2.0725 z"
         style="fill:#000000;stroke:none" />
      <path
         sodipodi:nodetypes="cc"
         inkscape:connector-curvature="0"
         id="path2987-8-9"
         d="m 294.86766,1016.3979 13.17707,0"
         style="fill:none;stroke:#000000;stroke-width:0.40000001;stroke-linecap:butt;stroke-linejoin:miter;stroke-miterlimit:4;stroke-opacity:1;stroke-dasharray:none" />
    </g>
    <g
       id="g3991"
       transform="translate(-0.19412682,5.1443595)">
      <path
         inkscape:connector-curvature="0"
         id="path3923"
         d="m 104.69525,896.42491 -2.07246,5.134 2.07246,-1.0939 2.07246,1.0939 -2.07246,-5.134 z"
         style="fill:#000000;stroke:none" />
      <path
         sodipodi:nodetypes="cc"
         inkscape:connector-curvature="0"
         id="path2987-8-8"
         d="m 104.69525,911.0126 0,-10.70622"
         style="fill:none;stroke:#000000;stroke-width:0.40000001;stroke-linecap:butt;stroke-linejoin:miter;stroke-miterlimit:4;stroke-opacity:1;stroke-dasharray:none" />
    </g>
    <g
       transform="translate(-6.4965725,852.36218)"
       style="font-size:20px;font-style:normal;font-variant:normal;font-weight:200;font-stretch:normal;line-height:125%;letter-spacing:0px;word-spacing:0px;fill:#000000;fill-opacity:1;stroke:none;font-family:Akkurat-Light;-inkscape-font-specification:Akkurat-Light Ultra-Light"
       id="flowRoot4032">
      <path
         d="m 149.1725,45.118874 -0.5,0 0,-3.27 c -1e-5,-0.926663 -0.39667,-1.389995 -1.19,-1.39 -0.34667,5e-6 -0.64334,0.113338 -0.89,0.34 -0.39334,0.373337 -0.59,0.870003 -0.59,1.49 l 0,2.83 -0.51,0 0,-3.27 c 0,-0.926663 -0.4,-1.389995 -1.2,-1.39 -0.35334,5e-6 -0.65,0.113338 -0.89,0.34 -0.4,0.373337 -0.6,0.980003 -0.6,1.82 l 0,2.5 -0.5,0 0,-5 0.44,0 0.06,0.86 c 0.13333,-0.299996 0.33333,-0.539995 0.6,-0.72 0.26666,-0.179995 0.57333,-0.269995 0.92,-0.27 0.83333,5e-6 1.36,0.360005 1.58,1.08 0.14,-0.326662 0.34333,-0.586662 0.61,-0.78 0.27333,-0.199995 0.60666,-0.299995 1,-0.3 0.55999,5e-6 0.97666,0.166672 1.25,0.5 0.27333,0.326671 0.40999,0.770004 0.41,1.33 l 0,3.3"
         style="font-size:10px"
         id="path4041" />
      <path
         d="m 155.1925,45.118874 c -0.12001,0.02 -0.2,0.03 -0.24,0.03 -0.52667,0 -0.79,-0.326666 -0.79,-0.98 -0.13334,0.340001 -0.36667,0.606667 -0.7,0.8 -0.33334,0.186667 -0.7,0.28 -1.1,0.28 -0.5,0 -0.91333,-0.14 -1.24,-0.42 -0.32,-0.279999 -0.48,-0.653332 -0.48,-1.12 0,-0.433332 0.15333,-0.779998 0.46,-1.04 0.30667,-0.266664 0.71333,-0.416664 1.22,-0.45 l 1.84,-0.13 0,-0.49 c 0,-0.759996 -0.44,-1.139995 -1.32,-1.14 -0.41334,5e-6 -0.75,0.09334 -1.01,0.28 -0.26,0.186671 -0.40333,0.460004 -0.43,0.82 l -0.5,0 c 0.0333,-0.493329 0.22667,-0.876662 0.58,-1.15 0.35333,-0.279995 0.80666,-0.419995 1.36,-0.42 0.38,5e-6 0.72333,0.07334 1.03,0.22 0.31333,0.146671 0.53333,0.380004 0.66,0.7 0.0867,0.226671 0.13,0.54667 0.13,0.96 l 0,2.28 c 0,0.186667 0.0233,0.323334 0.07,0.41 0.0533,0.08667 0.16,0.13 0.32,0.13 0.06,0 0.10666,-0.0033 0.14,-0.01 l 0,0.44 m -1.03,-2.31 0,-0.26 -1.79,0.11 c -0.37334,0.02667 -0.67,0.133336 -0.89,0.32 -0.22,0.186669 -0.33,0.430002 -0.33,0.73 0,0.346668 0.11333,0.613334 0.34,0.8 0.23333,0.186667 0.53666,0.28 0.91,0.28 0.58666,0 1.02666,-0.193333 1.32,-0.58 0.29333,-0.393332 0.44,-0.859998 0.44,-1.4"
         style="font-size:10px"
         id="path4043" />
      <path
         d="m 160.22797,43.728874 c -1e-5,0.353334 -0.11334,0.660001 -0.34,0.92 -0.36001,0.4 -0.9,0.6 -1.62,0.6 -0.71334,0 -1.26,-0.213333 -1.64,-0.64 -0.26,-0.299999 -0.4,-0.636666 -0.42,-1.01 l 0.51,0 c 0.0267,0.293335 0.15,0.550001 0.37,0.77 0.27333,0.266667 0.66666,0.4 1.18,0.4 0.54,0 0.93333,-0.123333 1.18,-0.37 0.17999,-0.179999 0.26999,-0.393332 0.27,-0.64 -1e-5,-0.233332 -0.08,-0.433332 -0.24,-0.6 -0.16,-0.166665 -0.38667,-0.269998 -0.68,-0.31 l -0.97,-0.13 c -0.52,-0.06 -0.89667,-0.226664 -1.13,-0.5 -0.18667,-0.219997 -0.28,-0.48333 -0.28,-0.79 0,-0.379996 0.14333,-0.703329 0.43,-0.97 0.34,-0.313328 0.79666,-0.469995 1.37,-0.47 0.67333,5e-6 1.17666,0.196672 1.51,0.59 0.23999,0.286671 0.36666,0.593337 0.38,0.92 l -0.5,0 c -0.0267,-0.239996 -0.11001,-0.439996 -0.25,-0.6 -0.24667,-0.293329 -0.62667,-0.439995 -1.14,-0.44 -0.38667,5e-6 -0.68667,0.07667 -0.9,0.23 -0.26,0.186671 -0.39,0.416671 -0.39,0.69 0,0.22667 0.07,0.413337 0.21,0.56 0.14666,0.140003 0.4,0.233336 0.76,0.28 l 0.95,0.13 c 0.44666,0.06 0.78666,0.223336 1.02,0.49 0.23999,0.260002 0.35999,0.556668 0.36,0.89"
         style="font-size:10px"
         id="path4045" />
      <path
         d="m 165.34516,43.728874 c -1e-5,0.353334 -0.11334,0.660001 -0.34,0.92 -0.36001,0.4 -0.90001,0.6 -1.62,0.6 -0.71334,0 -1.26001,-0.213333 -1.64,-0.64 -0.26,-0.299999 -0.4,-0.636666 -0.42,-1.01 l 0.51,0 c 0.0267,0.293335 0.15,0.550001 0.37,0.77 0.27333,0.266667 0.66666,0.4 1.18,0.4 0.53999,0 0.93333,-0.123333 1.18,-0.37 0.17999,-0.179999 0.26999,-0.393332 0.27,-0.64 -1e-5,-0.233332 -0.08,-0.433332 -0.24,-0.6 -0.16001,-0.166665 -0.38667,-0.269998 -0.68,-0.31 l -0.97,-0.13 c -0.52001,-0.06 -0.89667,-0.226664 -1.13,-0.5 -0.18667,-0.219997 -0.28,-0.48333 -0.28,-0.79 0,-0.379996 0.14333,-0.703329 0.43,-0.97 0.33999,-0.313328 0.79666,-0.469995 1.37,-0.47 0.67333,5e-6 1.17666,0.196672 1.51,0.59 0.23999,0.286671 0.36666,0.593337 0.38,0.92 l -0.5,0 c -0.0267,-0.239996 -0.11001,-0.439996 -0.25,-0.6 -0.24667,-0.293329 -0.62667,-0.439995 -1.14,-0.44 -0.38667,5e-6 -0.68667,0.07667 -0.9,0.23 -0.26001,0.186671 -0.39001,0.416671 -0.39,0.69 -1e-5,0.22667 0.07,0.413337 0.21,0.56 0.14666,0.140003 0.39999,0.233336 0.76,0.28 l 0.95,0.13 c 0.44666,0.06 0.78666,0.223336 1.02,0.49 0.23999,0.260002 0.35999,0.556668 0.36,0.89"
         style="font-size:10px"
         id="path4047" />
      <path
         d="m 172.61078,43.728874 c 0,0.353334 -0.11334,0.660001 -0.34,0.92 -0.36,0.4 -0.9,0.6 -1.62,0.6 -0.71333,0 -1.26,-0.213333 -1.64,-0.64 -0.26,-0.299999 -0.4,-0.636666 -0.42,-1.01 l 0.51,0 c 0.0267,0.293335 0.15,0.550001 0.37,0.77 0.27333,0.266667 0.66667,0.4 1.18,0.4 0.54,0 0.93333,-0.123333 1.18,-0.37 0.18,-0.179999 0.27,-0.393332 0.27,-0.64 0,-0.233332 -0.08,-0.433332 -0.24,-0.6 -0.16,-0.166665 -0.38667,-0.269998 -0.68,-0.31 l -0.97,-0.13 c -0.52,-0.06 -0.89667,-0.226664 -1.13,-0.5 -0.18667,-0.219997 -0.28,-0.48333 -0.28,-0.79 0,-0.379996 0.14333,-0.703329 0.43,-0.97 0.34,-0.313328 0.79667,-0.469995 1.37,-0.47 0.67333,5e-6 1.17666,0.196672 1.51,0.59 0.24,0.286671 0.36666,0.593337 0.38,0.92 l -0.5,0 c -0.0267,-0.239996 -0.11,-0.439996 -0.25,-0.6 -0.24667,-0.293329 -0.62667,-0.439995 -1.14,-0.44 -0.38667,5e-6 -0.68667,0.07667 -0.9,0.23 -0.26,0.186671 -0.39,0.416671 -0.39,0.69 0,0.22667 0.07,0.413337 0.21,0.56 0.14667,0.140003 0.4,0.233336 0.76,0.28 l 0.95,0.13 c 0.44666,0.06 0.78666,0.223336 1.02,0.49 0.24,0.260002 0.36,0.556668 0.36,0.89"
         style="font-size:10px"
         id="path4049" />
      <path
         d="m 178.46797,42.608874 c -1e-5,0.920002 -0.26001,1.626668 -0.78,2.12 -0.36001,0.346667 -0.81334,0.52 -1.36,0.52 -0.35334,0 -0.68667,-0.09 -1,-0.27 -0.31334,-0.18 -0.53667,-0.413333 -0.67,-0.7 l 0,2.84 -0.5,0 0,-7 0.44,0 0.06,0.88 c 0.13333,-0.299996 0.35666,-0.543329 0.67,-0.73 0.31333,-0.186662 0.64333,-0.279995 0.99,-0.28 0.53333,5e-6 0.97666,0.156672 1.33,0.47 0.54666,0.480004 0.81999,1.19667 0.82,2.15 m -0.51,0.01 c -10e-6,-0.799997 -0.22001,-1.396663 -0.66,-1.79 -0.26667,-0.233329 -0.59667,-0.349995 -0.99,-0.35 -0.4,5e-6 -0.74,0.133338 -1.02,0.4 -0.42667,0.420004 -0.64,1.000003 -0.64,1.74 0,0.773335 0.21,1.356668 0.63,1.75 0.27333,0.26 0.62333,0.39 1.05,0.39 0.43333,0 0.78999,-0.146666 1.07,-0.44 0.37333,-0.399999 0.55999,-0.966665 0.56,-1.7"
         style="font-size:10px"
         id="path4051" />
      <path
         d="m 183.89781,42.408874 c 0,0.04 -0.003,0.09667 -0.01,0.17 0,0.06667 0,0.120002 0,0.16 l -3.82,0 c 0.0133,0.600002 0.18667,1.100001 0.52,1.5 0.3,0.353334 0.70333,0.53 1.21,0.53 0.44667,0 0.81,-0.146666 1.09,-0.44 0.2,-0.213332 0.32666,-0.449999 0.38,-0.71 l 0.52,0 c -0.0667,0.400001 -0.25334,0.750001 -0.56,1.05 -0.38667,0.386667 -0.86333,0.58 -1.43,0.58 -0.64667,0 -1.17667,-0.236667 -1.59,-0.71 -0.42666,-0.499999 -0.64,-1.133332 -0.64,-1.9 0,-0.739997 0.16334,-1.33333 0.49,-1.78 0.42667,-0.579995 0.99333,-0.869995 1.7,-0.87 0.64667,5e-6 1.16333,0.240005 1.55,0.72 0.39333,0.473337 0.59,1.040003 0.59,1.7 m -0.51,-0.13 c -0.0133,-0.499997 -0.16667,-0.926663 -0.46,-1.28 -0.29333,-0.359996 -0.68333,-0.539995 -1.17,-0.54 -0.5,5e-6 -0.90667,0.176671 -1.22,0.53 -0.30667,0.34667 -0.46,0.77667 -0.46,1.29 l 3.31,0"
         style="font-size:10px"
         id="path4053" />
      <path
         d="m 189.07844,43.538874 c -0.0667,0.493334 -0.28001,0.903334 -0.64,1.23 -0.36001,0.32 -0.79667,0.48 -1.31,0.48 -0.58667,0 -1.07667,-0.196667 -1.47,-0.59 -0.46667,-0.466666 -0.7,-1.146665 -0.7,-2.04 0,-0.89333 0.23333,-1.573329 0.7,-2.04 0.39333,-0.393328 0.88333,-0.589995 1.47,-0.59 0.51999,5e-6 0.95666,0.156672 1.31,0.47 0.35333,0.306671 0.55999,0.713337 0.62,1.22 l -0.52,0 c -0.0533,-0.35333 -0.21001,-0.639996 -0.47,-0.86 -0.25334,-0.226662 -0.56667,-0.339995 -0.94,-0.34 -0.46667,5e-6 -0.83667,0.143338 -1.11,0.43 -0.36667,0.380004 -0.55,0.950003 -0.55,1.71 0,0.766668 0.18333,1.340001 0.55,1.72 0.26666,0.28 0.63666,0.42 1.11,0.42 0.37333,0 0.68666,-0.113333 0.94,-0.34 0.25999,-0.233332 0.41999,-0.526665 0.48,-0.88 l 0.53,0"
         style="font-size:10px"
         id="path4055" />
      <path
         d="m 192.87563,45.068874 c -0.37334,0.08 -0.65001,0.12 -0.83001,0.12 -0.86,0 -1.29,-0.486666 -1.29,-1.46 l 0,-3.15 -1,0 0,-0.46 1,0 0,-1.38 0.5,-0.12 0,1.5 1.55,0 0,0.46 -1.55,0 0,3.13 c 0,0.326668 0.06,0.576667 0.18,0.75 0.12,0.173334 0.33667,0.26 0.65,0.26 0.2,0 0.46334,-0.03 0.79001,-0.09 l 0,0.44"
         style="font-size:10px"
         id="path4057" />
      <path
         d="m 196.77703,40.598874 c -0.13334,-0.03333 -0.29667,-0.05 -0.49,-0.05 -0.3,5e-6 -0.56,0.06334 -0.78,0.19 -0.21333,0.120004 -0.37667,0.290004 -0.49,0.51 -0.11333,0.213337 -0.19667,0.443337 -0.25,0.69 -0.0467,0.240003 -0.07,0.500003 -0.07,0.78 l 0,2.4 -0.5,0 0,-5 0.44,0 0.06,1.01 c 0.10667,-0.333329 0.30667,-0.593329 0.6,-0.78 0.29333,-0.186662 0.62333,-0.279995 0.99,-0.28 0.22,5e-6 0.38333,0.01 0.49,0.03 l 0,0.5"
         style="font-size:10px"
         id="path4059" />
      <path
         d="m 201.85562,45.108874 -0.44,0 -0.06,-0.91 c -0.14,0.313334 -0.36667,0.566667 -0.68,0.76 -0.31333,0.186667 -0.65,0.28 -1.01,0.28 -0.56666,0 -1.00333,-0.163333 -1.31,-0.49 -0.3,-0.326666 -0.45,-0.773332 -0.45,-1.34 l 0,-3.3 0.5,0 0,3.27 c 0,0.913334 0.43,1.37 1.29,1.37 0.57334,0 0.99333,-0.203333 1.26,-0.61 0.26667,-0.413332 0.4,-0.923331 0.4,-1.53 l 0,-2.5 0.5,0 0,5"
         style="font-size:10px"
         id="path4061" />
      <path
         d="m 210.71547,45.118874 -0.5,0 0,-3.27 c -1e-5,-0.926663 -0.39667,-1.389995 -1.19,-1.39 -0.34667,5e-6 -0.64334,0.113338 -0.89,0.34 -0.39334,0.373337 -0.59001,0.870003 -0.59,1.49 l 0,2.83 -0.51,0 0,-3.27 c -1e-5,-0.926663 -0.40001,-1.389995 -1.2,-1.39 -0.35334,5e-6 -0.65,0.113338 -0.89,0.34 -0.4,0.373337 -0.6,0.980003 -0.6,1.82 l 0,2.5 -0.5,0 0,-5 0.44,0 0.06,0.86 c 0.13333,-0.299996 0.33333,-0.539995 0.6,-0.72 0.26666,-0.179995 0.57333,-0.269995 0.92,-0.27 0.83333,5e-6 1.35999,0.360005 1.58,1.08 0.13999,-0.326662 0.34333,-0.586662 0.61,-0.78 0.27333,-0.199995 0.60666,-0.299995 1,-0.3 0.55999,5e-6 0.97666,0.166672 1.25,0.5 0.27332,0.326671 0.40999,0.770004 0.41,1.33 l 0,3.3"
         style="font-size:10px"
         id="path4063" />
      <path
         d="m 216.46391,46.158874 -0.31,0.24 c -0.52667,-0.593334 -0.93334,-1.293333 -1.22,-2.1 -0.28667,-0.806665 -0.43,-1.609998 -0.43,-2.41 0,-0.799996 0.14333,-1.603329 0.43,-2.41 0.28666,-0.80666 0.69333,-1.50666 1.22,-2.1 l 0.31,0.24 c -0.99334,1.280006 -1.49,2.703338 -1.49,4.27 0,1.566668 0.49666,2.99 1.49,4.27"
         style="font-size:10px"
         id="path4065" />
      <path
         d="m 221.22406,43.728874 c 0,0.353334 -0.11334,0.660001 -0.34,0.92 -0.36,0.4 -0.9,0.6 -1.62,0.6 -0.71333,0 -1.26,-0.213333 -1.64,-0.64 -0.26,-0.299999 -0.4,-0.636666 -0.42,-1.01 l 0.51,0 c 0.0267,0.293335 0.15,0.550001 0.37,0.77 0.27333,0.266667 0.66667,0.4 1.18,0.4 0.54,0 0.93333,-0.123333 1.18,-0.37 0.18,-0.179999 0.27,-0.393332 0.27,-0.64 0,-0.233332 -0.08,-0.433332 -0.24,-0.6 -0.16,-0.166665 -0.38667,-0.269998 -0.68,-0.31 l -0.97,-0.13 c -0.52,-0.06 -0.89667,-0.226664 -1.13,-0.5 -0.18667,-0.219997 -0.28,-0.48333 -0.28,-0.79 0,-0.379996 0.14333,-0.703329 0.43,-0.97 0.34,-0.313328 0.79667,-0.469995 1.37,-0.47 0.67333,5e-6 1.17667,0.196672 1.51,0.59 0.24,0.286671 0.36666,0.593337 0.38,0.92 l -0.5,0 c -0.0267,-0.239996 -0.11,-0.439996 -0.25,-0.6 -0.24667,-0.293329 -0.62667,-0.439995 -1.14,-0.44 -0.38667,5e-6 -0.68667,0.07667 -0.9,0.23 -0.26,0.186671 -0.39,0.416671 -0.39,0.69 0,0.22667 0.07,0.413337 0.21,0.56 0.14667,0.140003 0.4,0.233336 0.76,0.28 l 0.95,0.13 c 0.44667,0.06 0.78667,0.223336 1.02,0.49 0.24,0.260002 0.36,0.556668 0.36,0.89"
         style="font-size:10px"
         id="path4067" />
      <path
         d="m 223.43125,38.728874 -0.7,0 0,-0.7 0.7,0 0,0.7 m -0.08,6.39 -0.53,0 0,-5 0.53,0 0,5"
         style="font-size:10px"
         id="path4069" />
      <path
         d="m 232.23891,45.118874 -0.5,0 0,-3.27 c -1e-5,-0.926663 -0.39668,-1.389995 -1.19,-1.39 -0.34668,5e-6 -0.64334,0.113338 -0.89,0.34 -0.39334,0.373337 -0.59001,0.870003 -0.59,1.49 l 0,2.83 -0.51,0 0,-3.27 c -1e-5,-0.926663 -0.40001,-1.389995 -1.2,-1.39 -0.35334,5e-6 -0.65001,0.113338 -0.89,0.34 -0.40001,0.373337 -0.60001,0.980003 -0.6,1.82 l 0,2.5 -0.5,0 0,-5 0.44,0 0.06,0.86 c 0.13333,-0.299996 0.33333,-0.539995 0.6,-0.72 0.26666,-0.179995 0.57333,-0.269995 0.92,-0.27 0.83333,5e-6 1.35999,0.360005 1.58,1.08 0.13999,-0.326662 0.34332,-0.586662 0.61,-0.78 0.27332,-0.199995 0.60666,-0.299995 1,-0.3 0.55999,5e-6 0.97666,0.166672 1.25,0.5 0.27332,0.326671 0.40999,0.770004 0.41,1.33 l 0,3.3"
         style="font-size:10px"
         id="path4071" />
      <path
         d="m 238.42891,42.608874 c -1e-5,0.920002 -0.26001,1.626668 -0.78,2.12 -0.36001,0.346667 -0.81334,0.52 -1.36,0.52 -0.35334,0 -0.68667,-0.09 -1,-0.27 -0.31334,-0.18 -0.53667,-0.413333 -0.67,-0.7 l 0,2.84 -0.5,0 0,-7 0.44,0 0.06,0.88 c 0.13333,-0.299996 0.35666,-0.543329 0.67,-0.73 0.31333,-0.186662 0.64333,-0.279995 0.99,-0.28 0.53333,5e-6 0.97666,0.156672 1.33,0.47 0.54666,0.480004 0.81999,1.19667 0.82,2.15 m -0.51,0.01 c -1e-5,-0.799997 -0.22001,-1.396663 -0.66,-1.79 -0.26667,-0.233329 -0.59667,-0.349995 -0.99,-0.35 -0.40001,5e-6 -0.74001,0.133338 -1.02,0.4 -0.42667,0.420004 -0.64001,1.000003 -0.64,1.74 -1e-5,0.773335 0.20999,1.356668 0.63,1.75 0.27333,0.26 0.62333,0.39 1.05,0.39 0.43333,0 0.78999,-0.146666 1.07,-0.44 0.37332,-0.399999 0.55999,-0.966665 0.56,-1.7"
         style="font-size:10px"
         id="path4073" />
      <path
         d="m 241.37875,45.118874 c -0.14667,0.04 -0.29667,0.06 -0.45,0.06 -0.66667,0 -1,-0.353333 -1,-1.06 l 0,-6.22 0.5,0 0,6.2 c 0,0.400001 0.17333,0.6 0.52,0.6 0.19333,0 0.33666,-0.0067 0.43,-0.02 l 0,0.44"
         style="font-size:10px"
         id="path4075" />
      <path
         d="m 243.41172,38.728874 -0.7,0 0,-0.7 0.7,0 0,0.7 m -0.08,6.39 -0.53,0 0,-5 0.53,0 0,5"
         style="font-size:10px"
         id="path4077" />
      <path
         d="m 247.84937,38.348874 c -0.26666,-0.03999 -0.50666,-0.05999 -0.72,-0.06 -0.63333,7e-6 -0.95,0.32334 -0.95,0.97 l 0,0.86 1.57,0 0,0.46 -1.57,0 0,4.54 -0.5,0 0,-4.54 -1,0 0,-0.46 1,0 0,-0.88 c 0,-0.399994 0.12,-0.733327 0.36,-1 0.24667,-0.26666 0.59667,-0.399993 1.05,-0.4 0.26667,7e-6 0.52,0.02001 0.76,0.06 l 0,0.45"
         style="font-size:10px"
         id="path4079" />
      <path
         d="m 249.525,38.728874 -0.7,0 0,-0.7 0.7,0 0,0.7 m -0.08,6.39 -0.53,0 0,-5 0.53,0 0,5"
         style="font-size:10px"
         id="path4081" />
      <path
         d="m 255.36266,42.408874 c -1e-5,0.04 -0.003,0.09667 -0.01,0.17 -10e-6,0.06667 -10e-6,0.120002 0,0.16 l -3.82,0 c 0.0133,0.600002 0.18666,1.100001 0.52,1.5 0.29999,0.353334 0.70333,0.53 1.21,0.53 0.44666,0 0.80999,-0.146666 1.09,-0.44 0.19999,-0.213332 0.32666,-0.449999 0.38,-0.71 l 0.52,0 c -0.0667,0.400001 -0.25334,0.750001 -0.56,1.05 -0.38667,0.386667 -0.86334,0.58 -1.43,0.58 -0.64667,0 -1.17667,-0.236667 -1.59,-0.71 -0.42667,-0.499999 -0.64,-1.133332 -0.64,-1.9 0,-0.739997 0.16333,-1.33333 0.49,-1.78 0.42666,-0.579995 0.99333,-0.869995 1.7,-0.87 0.64666,5e-6 1.16333,0.240005 1.55,0.72 0.39332,0.473337 0.58999,1.040003 0.59,1.7 m -0.51,-0.13 c -0.0133,-0.499997 -0.16667,-0.926663 -0.46,-1.28 -0.29334,-0.359996 -0.68334,-0.539995 -1.17,-0.54 -0.50001,5e-6 -0.90667,0.176671 -1.22,0.53 -0.30667,0.34667 -0.46,0.77667 -0.46,1.29 l 3.31,0"
         style="font-size:10px"
         id="path4083" />
      <path
         d="m 260.71328,45.118874 -0.44,0 -0.06,-0.88 c -0.13334,0.300001 -0.35667,0.543334 -0.67,0.73 -0.31334,0.186667 -0.64334,0.28 -0.99,0.28 -0.53333,0 -0.97667,-0.156667 -1.33,-0.47 -0.54667,-0.479999 -0.82,-1.196665 -0.82,-2.15 0,-0.919997 0.26,-1.626663 0.78,-2.12 0.36,-0.346662 0.81333,-0.519995 1.36,-0.52 0.35333,5e-6 0.68666,0.09 1,0.27 0.31333,0.180005 0.53666,0.413338 0.67,0.7 l 0,-3.06 0.5,0 0,7.22 m -0.49,-2.5 c 0,-0.77333 -0.21,-1.356663 -0.63,-1.75 -0.27334,-0.259996 -0.62334,-0.389995 -1.05,-0.39 -0.43333,5e-6 -0.79,0.146671 -1.07,0.44 -0.37333,0.400004 -0.56,0.96667 -0.56,1.7 0,0.800002 0.22,1.396668 0.66,1.79 0.26667,0.233334 0.59667,0.35 0.99,0.35 0.4,0 0.74,-0.133333 1.02,-0.4 0.42666,-0.419999 0.64,-0.999998 0.64,-1.74"
         style="font-size:10px"
         id="path4085" />
      <path
         d="m 263.43313,39.478874 c 0.28666,0.806671 0.42999,1.610004 0.43,2.41 -1e-5,0.800002 -0.14334,1.603335 -0.43,2.41 -0.28667,0.806667 -0.69334,1.506666 -1.22001,2.1 l -0.31,-0.24 c 0.99334,-1.28 1.49,-2.703332 1.49,-4.27 0,-1.566662 -0.49666,-2.989994 -1.49,-4.27 l 0.31,-0.24 c 0.52667,0.59334 0.93334,1.29334 1.22001,2.1"
         style="font-size:10px"
         id="path4087" />
    </g>
    <path
       style="fill:none;stroke:#000000;stroke-width:0.5;stroke-linecap:butt;stroke-linejoin:miter;stroke-miterlimit:4;stroke-opacity:1;stroke-dasharray:none"
       d="m 209.05445,987.42964 0,-13.88506"
       id="path2987-8-2"
       inkscape:connector-curvature="0"
       sodipodi:nodetypes="cc" />
    <path
       style="fill:none;stroke:#000000;stroke-width:0.5;stroke-linecap:butt;stroke-linejoin:miter;stroke-miterlimit:4;stroke-opacity:1;stroke-dasharray:none"
       d="m 142.09067,987.95553 0,-13.8387"
       id="path2987-8-7"
       inkscape:connector-curvature="0"
       sodipodi:nodetypes="cc" />
    <g
       transform="matrix(0.78947368,0,0,0.78947368,28.848997,874.58231)"
       style="font-size:20px;font-style:normal;font-variant:normal;font-weight:200;font-stretch:normal;line-height:125%;letter-spacing:0px;word-spacing:0px;fill:#000000;fill-opacity:1;stroke:none;font-family:Akkurat-Light;-inkscape-font-specification:Akkurat-Light Ultra-Light"
       id="flowRoot4133">
      <path
         d="m 138.4575,161.18137 -4.03,0 0,-0.54 2.78,-3.47 c 0.37333,-0.46666 0.56,-0.91332 0.56,-1.34 0,-0.39332 -0.13,-0.69999 -0.39,-0.92 -0.25334,-0.22666 -0.57667,-0.33999 -0.97,-0.34 -0.46,1e-5 -0.82,0.14668 -1.08,0.44 -0.25333,0.28668 -0.38,0.66668 -0.38,1.14 l -0.53,0 c 0,-0.60666 0.18,-1.09999 0.54,-1.48 0.36,-0.38666 0.84333,-0.57999 1.45,-0.58 0.54666,10e-6 0.99333,0.15668 1.34,0.47 0.34666,0.31334 0.52,0.73668 0.52,1.27 0,0.53334 -0.22667,1.07667 -0.68,1.63 l -2.6,3.24 3.47,0 0,0.48"
         style="font-size:10px"
         id="path4207" />
      <path
         d="m 140.88109,161.18137 -0.88,0 0,-0.9 0.88,0 0,0.9"
         style="font-size:10px"
         id="path4209" />
      <path
         d="m 146.00781,154.65137 c 0.54666,0.52668 0.82,1.54334 0.82,3.05 0,1.50667 -0.27334,2.52334 -0.82,3.05 -0.38667,0.37334 -0.85667,0.56 -1.41,0.56 -0.55333,0 -1.02333,-0.18666 -1.41,-0.56 -0.54667,-0.52666 -0.82,-1.54333 -0.82,-3.05 0,-1.50666 0.27333,-2.52332 0.82,-3.05 0.38667,-0.37332 0.85667,-0.55999 1.41,-0.56 0.55333,10e-6 1.02333,0.18668 1.41,0.56 m 0.28,4.06 c 0.02,-0.26666 0.03,-0.60333 0.03,-1.01 0,-0.40666 -0.01,-0.73999 -0.03,-1 -0.0133,-0.26666 -0.0733,-0.57332 -0.18,-0.92 -0.1,-0.35332 -0.24667,-0.62332 -0.44,-0.81 -0.28,-0.26666 -0.63667,-0.39999 -1.07,-0.4 -0.43333,1e-5 -0.79,0.13334 -1.07,0.4 -0.19333,0.18668 -0.34333,0.45668 -0.45,0.81 -0.1,0.34668 -0.16,0.65334 -0.18,0.92 -0.0133,0.26001 -0.02,0.59334 -0.02,1 0,0.40667 0.007,0.74334 0.02,1.01 0.02,0.26001 0.08,0.56667 0.18,0.92 0.10667,0.34667 0.25667,0.61334 0.45,0.8 0.28,0.26667 0.63667,0.4 1.07,0.4 0.43333,0 0.79,-0.13333 1.07,-0.4 0.19333,-0.18666 0.34,-0.45333 0.44,-0.8 0.10666,-0.35333 0.16666,-0.65999 0.18,-0.92"
         style="font-size:10px"
         id="path4211" />
      <path
         d="m 152.46141,161.18137 -4.03,0 0,-0.54 2.78,-3.47 c 0.37333,-0.46666 0.55999,-0.91332 0.56,-1.34 -1e-5,-0.39332 -0.13001,-0.69999 -0.39,-0.92 -0.25334,-0.22666 -0.57667,-0.33999 -0.97,-0.34 -0.46001,1e-5 -0.82001,0.14668 -1.08,0.44 -0.25334,0.28668 -0.38001,0.66668 -0.38,1.14 l -0.53,0 c 0,-0.60666 0.18,-1.09999 0.54,-1.48 0.35999,-0.38666 0.84333,-0.57999 1.45,-0.58 0.54666,10e-6 0.99333,0.15668 1.34,0.47 0.34666,0.31334 0.51999,0.73668 0.52,1.27 -1e-5,0.53334 -0.22668,1.07667 -0.68,1.63 l -2.6,3.24 3.47,0 0,0.48"
         style="font-size:10px"
         id="path4213" />
    </g>
    <path
       style="fill:none;stroke:#000000;stroke-width:0.5;stroke-linecap:butt;stroke-linejoin:miter;stroke-miterlimit:4;stroke-opacity:1;stroke-dasharray:0.5,0.5;stroke-dashoffset:0"
       d="m 209.05445,991.40453 0,-2.90361"
       id="path2987-8-2-3"
       inkscape:connector-curvature="0"
       sodipodi:nodetypes="cc" />
    <g
       transform="matrix(0.78947368,0,0,0.78947368,89.419623,871.58107)"
       style="font-size:20px;font-style:normal;font-variant:normal;font-weight:200;font-stretch:normal;line-height:125%;letter-spacing:0px;word-spacing:0px;fill:#000000;fill-opacity:1;stroke:none;font-family:Akkurat-Light;-inkscape-font-specification:Akkurat-Light Ultra-Light"
       id="flowRoot4133-2">
      <path
         d="m 136.8675,161.18137 -0.5,0 0,-6.33 -1.73,1.27 0,-0.56 1.78,-1.33 0.45,0 0,6.95"
         style="font-size:10px"
         id="path4216" />
      <path
         d="m 144.42109,159.59137 -0.97,0 0,1.59 -0.51,0 0,-1.59 -3.28,0 0,-0.55 2.83,-4.81 0.57,0 -2.86,4.86 2.74,0 0,-2.15 0.51,0 0,2.15 0.97,0 0,0.5"
         style="font-size:10px"
         id="path4218" />
      <path
         d="m 146.56469,161.18137 -0.88,0 0,-0.9 0.88,0 0,0.9"
         style="font-size:10px"
         id="path4220" />
      <path
         d="m 151.69141,154.65137 c 0.54666,0.52668 0.81999,1.54334 0.82,3.05 -1e-5,1.50667 -0.27334,2.52334 -0.82,3.05 -0.38667,0.37334 -0.85667,0.56 -1.41,0.56 -0.55334,0 -1.02334,-0.18666 -1.41,-0.56 -0.54667,-0.52666 -0.82,-1.54333 -0.82,-3.05 0,-1.50666 0.27333,-2.52332 0.82,-3.05 0.38666,-0.37332 0.85666,-0.55999 1.41,-0.56 0.55333,10e-6 1.02333,0.18668 1.41,0.56 m 0.28,4.06 c 0.02,-0.26666 0.03,-0.60333 0.03,-1.01 -1e-5,-0.40666 -0.01,-0.73999 -0.03,-1 -0.0133,-0.26666 -0.0733,-0.57332 -0.18,-0.92 -0.10001,-0.35332 -0.24667,-0.62332 -0.44,-0.81 -0.28001,-0.26666 -0.63667,-0.39999 -1.07,-0.4 -0.43334,1e-5 -0.79001,0.13334 -1.07,0.4 -0.19334,0.18668 -0.34334,0.45668 -0.45,0.81 -0.1,0.34668 -0.16,0.65334 -0.18,0.92 -0.0133,0.26001 -0.02,0.59334 -0.02,1 0,0.40667 0.007,0.74334 0.02,1.01 0.02,0.26001 0.08,0.56667 0.18,0.92 0.10666,0.34667 0.25666,0.61334 0.45,0.8 0.27999,0.26667 0.63666,0.4 1.07,0.4 0.43333,0 0.78999,-0.13333 1.07,-0.4 0.19333,-0.18666 0.33999,-0.45333 0.44,-0.8 0.10666,-0.35333 0.16666,-0.65999 0.18,-0.92"
         style="font-size:10px"
         id="path4222" />
      <path
         d="m 158.005,159.36137 c 0,0.57334 -0.21,1.04334 -0.63,1.41 -0.41334,0.36 -0.92,0.54 -1.52,0.54 -0.64667,0 -1.16,-0.2 -1.54,-0.6 -0.38,-0.4 -0.57667,-0.91666 -0.59,-1.55 l 0.51,0 c 0.007,0.48001 0.14667,0.88001 0.42,1.2 0.28,0.31334 0.68,0.47 1.2,0.47 0.49333,0 0.88666,-0.13333 1.18,-0.4 0.3,-0.26666 0.45,-0.62333 0.45,-1.07 0,-0.50666 -0.14667,-0.89333 -0.44,-1.16 -0.28667,-0.26666 -0.68667,-0.39999 -1.2,-0.4 l -0.37,0 0,-0.48 0.37,0 c 0.46,1e-5 0.82333,-0.11999 1.09,-0.36 0.26666,-0.23999 0.4,-0.58666 0.4,-1.04 0,-0.39999 -0.14334,-0.72332 -0.43,-0.97 -0.28,-0.25332 -0.62,-0.37999 -1.02,-0.38 -0.48,1e-5 -0.86667,0.14334 -1.16,0.43 -0.28667,0.28668 -0.43333,0.66668 -0.44,1.14 l -0.52,0 c 0.007,-0.61332 0.20667,-1.10666 0.6,-1.48 0.4,-0.37999 0.90666,-0.56999 1.52,-0.57 0.55333,10e-6 1.02,0.17001 1.4,0.51 0.38,0.33334 0.57,0.77334 0.57,1.32 0,0.38668 -0.1,0.73001 -0.3,1.03 -0.19334,0.30001 -0.47,0.50334 -0.83,0.61 0.4,0.11334 0.71333,0.33667 0.94,0.67 0.22666,0.32667 0.34,0.70334 0.34,1.13"
         style="font-size:10px"
         id="path4224" />
    </g>
    <path
       style="fill:none;stroke:#000000;stroke-width:0.5;stroke-linecap:butt;stroke-linejoin:miter;stroke-miterlimit:4;stroke-opacity:1;stroke-dasharray:0.5, 0.5;stroke-dashoffset:0"
       d="m 217.02938,1004.6868 0,-16.90494"
       id="path2987-8-2-3-3"
       inkscape:connector-curvature="0"
       sodipodi:nodetypes="cc" />
  </g>
</svg>
