<?xml version="1.0" encoding="UTF-8" standalone="no"?>
<!-- Created with Inkscape (http://www.inkscape.org/) -->

<svg
   xmlns:dc="http://purl.org/dc/elements/1.1/"
   xmlns:cc="http://creativecommons.org/ns#"
   xmlns:rdf="http://www.w3.org/1999/02/22-rdf-syntax-ns#"
   xmlns:svg="http://www.w3.org/2000/svg"
   xmlns="http://www.w3.org/2000/svg"
   xmlns:sodipodi="http://sodipodi.sourceforge.net/DTD/sodipodi-0.dtd"
   xmlns:inkscape="http://www.inkscape.org/namespaces/inkscape"
   width="400"
   height="200"
   id="svg2"
   version="1.1"
   inkscape:version="0.48.4 r9939"
   sodipodi:docname="mass-spectrometer.svg">
  <defs
     id="defs4" />
  <sodipodi:namedview
     id="base"
     pagecolor="#ffffff"
     bordercolor="#666666"
     borderopacity="1.0"
     inkscape:pageopacity="0.0"
     inkscape:pageshadow="2"
     inkscape:zoom="3.73"
     inkscape:cx="209.65147"
     inkscape:cy="100"
     inkscape:document-units="px"
     inkscape:current-layer="layer1"
     showgrid="false"
     inkscape:window-width="1876"
     inkscape:window-height="972"
     inkscape:window-x="20"
     inkscape:window-y="52"
     inkscape:window-maximized="0" />
  <metadata
     id="metadata7">
    <rdf:RDF>
      <cc:Work
         rdf:about="">
        <dc:format>image/svg+xml</dc:format>
        <dc:type
           rdf:resource="http://purl.org/dc/dcmitype/StillImage" />
        <dc:title />
      </cc:Work>
    </rdf:RDF>
  </metadata>
  <g
     inkscape:label="Layer 1"
     inkscape:groupmode="layer"
     id="layer1"
     transform="translate(0,-852.36218)">
    <g
       id="g3280">
      <path
         transform="matrix(1.7801821,0,0,1.7801821,-186.99886,699.80626)"
         d="m 302.01073,162.06435 a 60.723862,60.723862 0 1 1 -121.44773,0 60.723862,60.723862 0 1 1 121.44773,0 z"
         sodipodi:ry="60.723862"
         sodipodi:rx="60.723862"
         sodipodi:cy="162.06435"
         sodipodi:cx="241.28687"
         id="path2987-0"
         style="color:#000000;fill:none;stroke:#c8c8c8;stroke-width:18.40117455;stroke-linecap:square;stroke-miterlimit:4;stroke-opacity:1;stroke-dasharray:none;stroke-dashoffset:0;marker:none;visibility:visible;display:inline;overflow:visible;enable-background:accumulate"
         sodipodi:type="arc" />
      <path
         transform="matrix(1.7337596,0,0,1.7337596,-178.88526,710.41726)"
         d="m 302.01073,162.06435 a 60.723862,60.723862 0 1 1 -121.44773,0 60.723862,60.723862 0 1 1 121.44773,0 z"
         sodipodi:ry="60.723862"
         sodipodi:rx="60.723862"
         sodipodi:cy="162.06435"
         sodipodi:cx="241.28687"
         id="path2987-5"
         style="color:#000000;fill:none;stroke:#000000;stroke-width:1.25600386;stroke-linecap:square;stroke-miterlimit:4;stroke-opacity:1;stroke-dasharray:1.25600386, 2.51200771;stroke-dashoffset:0;marker:none;visibility:visible;display:inline;overflow:visible;enable-background:accumulate"
         sodipodi:type="arc" />
      <path
         transform="matrix(1.8329391,0,0,1.8329391,-196.73187,688.25969)"
         d="m 302.01073,162.06435 a 60.723862,60.723862 0 1 1 -121.44773,0 60.723862,60.723862 0 1 1 121.44773,0 z"
         sodipodi:ry="60.723862"
         sodipodi:rx="60.723862"
         sodipodi:cy="162.06435"
         sodipodi:cx="241.28687"
         id="path2987-5-8"
         style="color:#000000;fill:none;stroke:#000000;stroke-width:1.17869365;stroke-linecap:square;stroke-miterlimit:4;stroke-opacity:1;stroke-dasharray:1.17869362, 2.35738724;stroke-dashoffset:0;marker:none;visibility:visible;display:inline;overflow:visible;enable-background:accumulate"
         sodipodi:type="arc" />
      <rect
         y="856.99255"
         x="242.53575"
         height="262.6355"
         width="164.14719"
         id="rect3885"
         style="color:#000000;fill:#ffffff;fill-opacity:1;fill-rule:nonzero;stroke:none;stroke-width:1;marker:none;visibility:visible;display:inline;overflow:visible;enable-background:accumulate" />
      <rect
         transform="matrix(0,-1,1,0,0,0)"
         y="111.21793"
         x="-1124.7804"
         height="262.63556"
         width="136.47012"
         id="rect3885-1"
         style="color:#000000;fill:#ffffff;fill-opacity:1;fill-rule:nonzero;stroke:none;stroke-width:1;marker:none;visibility:visible;display:inline;overflow:visible;enable-background:accumulate" />
      <path
         sodipodi:nodetypes="cc"
         inkscape:connector-curvature="0"
         id="path3778-4"
         d="m 134.19856,1044.007 0,-58.15901"
         style="fill:none;stroke:#000000;stroke-width:2.18862915;stroke-linecap:square;stroke-linejoin:miter;stroke-miterlimit:4;stroke-opacity:1;stroke-dasharray:none" />
      <path
         sodipodi:nodetypes="cc"
         inkscape:connector-curvature="0"
         id="path3778"
         d="m 243.65821,886.12282 9.2679,0"
         style="fill:none;stroke:#000000;stroke-width:2.18862915;stroke-linecap:square;stroke-linejoin:miter;stroke-miterlimit:4;stroke-opacity:1;stroke-dasharray:none" />
      <path
         sodipodi:nodetypes="cc"
         inkscape:connector-curvature="0"
         id="path3778-7"
         d="m 243.65821,874.02471 9.2679,0"
         style="fill:none;stroke:#000000;stroke-width:2.18862915;stroke-linecap:square;stroke-linejoin:miter;stroke-miterlimit:4;stroke-opacity:1;stroke-dasharray:none" />
      <rect
         y="864.15558"
         x="255.16003"
         height="32.221039"
         width="7.6610041"
         id="rect3993"
         style="color:#000000;fill:#008080;fill-opacity:1;fill-rule:nonzero;stroke:#333333;stroke-width:0.54715729;stroke-miterlimit:4;stroke-opacity:1;stroke-dasharray:none;marker:none;visibility:visible;display:inline;overflow:visible;enable-background:accumulate" />
      <rect
         transform="matrix(0,-1,1,0,0,0)"
         y="118.08805"
         x="-1008.3601"
         height="32.221035"
         width="15.772601"
         id="rect3993-2"
         style="color:#000000;fill:#2a7fff;fill-opacity:1;fill-rule:nonzero;stroke:#333333;stroke-width:0.54715729;stroke-miterlimit:4;stroke-opacity:1;stroke-dasharray:none;marker:none;visibility:visible;display:inline;overflow:visible;enable-background:accumulate" />
      <g
         id="flowRoot3055"
         style="font-size:11px;font-style:normal;font-variant:normal;font-weight:200;font-stretch:normal;line-height:125%;letter-spacing:0px;word-spacing:0px;fill:#000000;fill-opacity:1;stroke:none;font-family:Akkurat-Light;-inkscape-font-specification:Akkurat-Light Ultra-Light"
         transform="matrix(0.73668683,0,0,0.73668683,30.349093,845.26938)">
        <path
           id="path3241"
           style="font-size:20px"
           d="m 26.58125,204.989 -1.4,0 0,-1.4 1.4,0 0,1.4 m -0.16,12.78 -1.06,0 0,-10 1.06,0 0,10" />
        <path
           id="path3243"
           style="font-size:20px"
           d="m 36.856562,208.709 c 0.946658,0.94667 1.419991,2.3 1.42,4.06 -9e-6,1.76 -0.473342,3.11333 -1.42,4.06 -0.800007,0.8 -1.773339,1.2 -2.92,1.2 -1.14667,0 -2.120003,-0.4 -2.92,-1.2 -0.946668,-0.94667 -1.420001,-2.3 -1.42,-4.06 -10e-7,-1.76 0.473332,-3.11333 1.42,-4.06 0.799997,-0.79999 1.77333,-1.19999 2.92,-1.2 1.146661,1e-5 2.119993,0.40001 2.92,1.2 m -0.72,7.46 c 0.746659,-0.77333 1.119992,-1.90667 1.12,-3.4 -8e-6,-1.49333 -0.373341,-2.62666 -1.12,-3.4 -0.560007,-0.58666 -1.293339,-0.87999 -2.2,-0.88 -0.906671,1e-5 -1.640003,0.29334 -2.199999,0.88 -0.74667,0.77334 -1.120003,1.90667 -1.120001,3.4 -2e-6,1.49333 0.373331,2.62667 1.120001,3.4 0.559996,0.58667 1.293328,0.88 2.199999,0.88 0.906661,0 1.639993,-0.29333 2.2,-0.88" />
        <path
           id="path3245"
           style="font-size:20px"
           d="m 49.294062,217.769 -0.999999,0 0,-6.54 c -9e-6,-1.82666 -0.860009,-2.73999 -2.580001,-2.74 -1.146671,1e-5 -1.98667,0.41334 -2.52,1.24 -0.533336,0.81334 -0.800002,1.82667 -0.8,3.04 l 0,5 -1,0 0,-10 0.88,0 0.12,1.82 c 0.279997,-0.62666 0.73333,-1.12666 1.360001,-1.5 0.639995,-0.38666 1.313327,-0.57999 2.019999,-0.58 1.133326,1e-5 1.999992,0.32667 2.6,0.98 0.613324,0.65334 0.919991,1.54667 0.92,2.68 l 0,6.6" />
        <path
           id="path3247"
           style="font-size:20px"
           d="m 54.39375,204.989 -1.4,0 0,-1.4 1.4,0 0,1.4 m -0.16,12.78 -1.06,0 0,-10 1.06,0 0,10" />
        <path
           id="path3249"
           style="font-size:20px"
           d="m 65.049063,217.769 -7.540001,0 0,-1.12 6.4,-7.94 -6.4,0 0,-0.94 7.480001,0 0,1.1 -6.400001,7.94 6.460001,0 0,0.96" />
        <path
           id="path3251"
           style="font-size:20px"
           d="m 76.392813,217.769 c -0.240011,0.04 -0.40001,0.06 -0.480001,0.06 -1.053342,0 -1.580008,-0.65333 -1.579999,-1.96 -0.266675,0.68 -0.733341,1.21333 -1.400001,1.6 -0.666672,0.37333 -1.400005,0.56 -2.2,0.56 -1.000003,0 -1.826669,-0.28 -2.479999,-0.84 -0.640002,-0.56 -0.960002,-1.30667 -0.960001,-2.24 -10e-7,-0.86667 0.306666,-1.56 0.92,-2.08 0.613331,-0.53333 1.426664,-0.83333 2.44,-0.9 l 3.680001,-0.26 0,-0.98 c -9e-6,-1.51999 -0.880008,-2.27999 -2.64,-2.28 -0.826672,10e-6 -1.500005,0.18667 -2.02,0.56 -0.520004,0.37334 -0.80667,0.92001 -0.86,1.64 l -1,0 c 0.06666,-0.98666 0.453331,-1.75333 1.16,-2.3 0.706663,-0.55999 1.613328,-0.83999 2.72,-0.84 0.759993,1e-5 1.446659,0.14667 2.06,0.44 0.626658,0.29334 1.066657,0.76001 1.319999,1.4 0.173325,0.45334 0.259991,1.09334 0.260001,1.92 l 0,4.56 c -1e-5,0.37333 0.04666,0.64667 0.14,0.82 0.106657,0.17333 0.31999,0.26 0.64,0.26 0.119989,0 0.213323,-0.007 0.28,-0.02 l 0,0.88 m -2.06,-4.62 0,-0.52 -3.58,0.22 c -0.746671,0.0533 -1.340004,0.26667 -1.78,0.64 -0.440003,0.37334 -0.660003,0.86 -0.66,1.46 -3e-6,0.69333 0.226664,1.22667 0.679999,1.6 0.466664,0.37333 1.07333,0.56 1.820001,0.56 1.173327,0 2.053326,-0.38667 2.639999,-1.16 0.586659,-0.78667 0.879992,-1.72 0.880001,-2.8" />
        <path
           id="path3253"
           style="font-size:20px"
           d="m 84.06375,217.669 c -0.746673,0.16 -1.300005,0.24 -1.66,0.24 -1.720003,0 -2.580002,-0.97333 -2.58,-2.92 l 0,-6.3 -2,0 0,-0.92 2,0 0,-2.76 1,-0.24 0,3 3.1,0 0,0.92 -3.1,0 0,6.26 c -3e-6,0.65333 0.119996,1.15333 0.36,1.5 0.239996,0.34667 0.673329,0.52 1.3,0.52 0.399994,0 0.926661,-0.06 1.58,-0.18 l 0,0.88" />
        <path
           id="path3255"
           style="font-size:20px"
           d="m 88.026562,204.989 -1.399999,0 0,-1.4 1.399999,0 0,1.4 m -0.16,12.78 -1.06,0 0,-10 1.06,0 0,10" />
        <path
           id="path3257"
           style="font-size:20px"
           d="m 98.301875,208.709 c 0.946657,0.94667 1.41999,2.3 1.42,4.06 -1e-5,1.76 -0.473343,3.11333 -1.42,4.06 -0.800008,0.8 -1.77334,1.2 -2.92,1.2 -1.146671,0 -2.120003,-0.4 -2.92,-1.2 -0.946668,-0.94667 -1.420001,-2.3 -1.42,-4.06 -10e-7,-1.76 0.473332,-3.11333 1.42,-4.06 0.799997,-0.79999 1.773329,-1.19999 2.92,-1.2 1.14666,1e-5 2.119992,0.40001 2.92,1.2 m -0.72,7.46 c 0.746658,-0.77333 1.119991,-1.90667 1.12,-3.4 -9e-6,-1.49333 -0.373342,-2.62666 -1.12,-3.4 -0.560007,-0.58666 -1.29334,-0.87999 -2.2,-0.88 -0.906671,1e-5 -1.640004,0.29334 -2.2,0.88 -0.746669,0.77334 -1.120002,1.90667 -1.12,3.4 -2e-6,1.49333 0.373331,2.62667 1.12,3.4 0.559996,0.58667 1.293329,0.88 2.2,0.88 0.90666,0 1.639993,-0.29333 2.2,-0.88" />
        <path
           id="path3259"
           style="font-size:20px"
           d="m 110.73937,217.769 -1,0 0,-6.54 c 0,-1.82666 -0.86,-2.73999 -2.58,-2.74 -1.14667,1e-5 -1.98667,0.41334 -2.51999,1.24 -0.53334,0.81334 -0.80001,1.82667 -0.8,3.04 l 0,5 -1,0 0,-10 0.88,0 0.12,1.82 c 0.27999,-0.62666 0.73332,-1.12666 1.36,-1.5 0.63999,-0.38666 1.31332,-0.57999 2.02,-0.58 1.13332,1e-5 1.99999,0.32667 2.6,0.98 0.61332,0.65334 0.91999,1.54667 0.91999,2.68 l 0,6.6" />
      </g>
      <g
         id="flowRoot3055-4"
         style="font-size:11px;font-style:normal;font-variant:normal;font-weight:200;font-stretch:normal;line-height:125%;letter-spacing:0px;word-spacing:0px;fill:#000000;fill-opacity:1;stroke:none;font-family:Akkurat-Light;-inkscape-font-specification:Akkurat-Light Ultra-Light"
         transform="matrix(0.73668683,0,0,0.73668683,248.99321,725.06164)">
        <path
           id="path3262"
           style="font-size:20px"
           d="m 32.98125,217.769 -0.88,0 -0.12,-1.76 c -0.266675,0.6 -0.713341,1.08667 -1.34,1.46 -0.626673,0.37333 -1.286673,0.56 -1.98,0.56 -1.066671,0 -1.953337,-0.31334 -2.66,-0.94 -1.093335,-0.96 -1.640001,-2.39333 -1.64,-4.3 -10e-7,-1.84 0.519998,-3.25333 1.56,-4.24 0.719997,-0.69333 1.626662,-1.03999 2.72,-1.04 0.706661,1e-5 1.373327,0.18001 2,0.54 0.626659,0.36001 1.073325,0.82667 1.34,1.4 l 0,-6.12 1,0 0,14.44 m -0.98,-5 c -9e-6,-1.54666 -0.420008,-2.71333 -1.26,-3.5 -0.546674,-0.51999 -1.246673,-0.77999 -2.1,-0.78 -0.866671,1e-5 -1.580004,0.29334 -2.14,0.88 -0.746669,0.80001 -1.120002,1.93334 -1.12,3.4 -2e-6,1.6 0.439997,2.79333 1.32,3.58 0.533329,0.46667 1.193329,0.7 1.98,0.7 0.799994,0 1.479993,-0.26667 2.04,-0.8 0.853325,-0.84 1.279991,-2 1.28,-3.48" />
        <path
           id="path3264"
           style="font-size:20px"
           d="m 44.740937,212.349 c -9e-6,0.08 -0.0067,0.19334 -0.02,0.34 -9e-6,0.13334 -9e-6,0.24 0,0.32 l -7.64,0 c 0.02667,1.2 0.373331,2.2 1.04,3 0.599997,0.70667 1.406663,1.06 2.42,1.06 0.893327,0 1.619993,-0.29333 2.18,-0.88 0.399992,-0.42667 0.653325,-0.9 0.76,-1.42 l 1.040001,0 c -0.133343,0.8 -0.506676,1.5 -1.120001,2.1 -0.773341,0.77333 -1.726673,1.16 -2.86,1.16 -1.293337,0 -2.353336,-0.47334 -3.18,-1.42 -0.853334,-1 -1.280001,-2.26667 -1.28,-3.8 -10e-7,-1.48 0.326666,-2.66666 0.980001,-3.56 0.85333,-1.15999 1.986662,-1.73999 3.399999,-1.74 1.293327,1e-5 2.326659,0.48001 3.100001,1.44 0.786657,0.94667 1.17999,2.08 1.179999,3.4 m -1.02,-0.26 c -0.02667,-1 -0.333341,-1.85333 -0.919999,-2.56 -0.586674,-0.71999 -1.366674,-1.07999 -2.340001,-1.08 -1.000004,10e-6 -1.813337,0.35334 -2.439999,1.06 -0.613336,0.69334 -0.920003,1.55334 -0.920001,2.58 l 6.62,0" />
        <path
           id="path3266"
           style="font-size:20px"
           d="m 52.462187,217.669 c -0.746672,0.16 -1.300005,0.24 -1.659999,0.24 -1.720004,0 -2.580003,-0.97333 -2.580001,-2.92 l 0,-6.3 -2,0 0,-0.92 2,0 0,-2.76 1.000001,-0.24 0,3 3.099999,0 0,0.92 -3.099999,0 0,6.26 c -4e-6,0.65333 0.119996,1.15333 0.36,1.5 0.239995,0.34667 0.673328,0.52 1.299999,0.52 0.399995,0 0.926661,-0.06 1.58,-0.18 l 0,0.88" />
        <path
           id="path3268"
           style="font-size:20px"
           d="m 62.905,212.349 c -1e-5,0.08 -0.0067,0.19334 -0.02,0.34 -10e-6,0.13334 -10e-6,0.24 0,0.32 l -7.64,0 c 0.02667,1.2 0.373331,2.2 1.04,3 0.599996,0.70667 1.406662,1.06 2.42,1.06 0.893327,0 1.619993,-0.29333 2.18,-0.88 0.399992,-0.42667 0.653325,-0.9 0.76,-1.42 l 1.04,0 c -0.133343,0.8 -0.506676,1.5 -1.12,2.1 -0.773341,0.77333 -1.726673,1.16 -2.86,1.16 -1.293338,0 -2.353337,-0.47334 -3.18,-1.42 -0.853335,-1 -1.280001,-2.26667 -1.28,-3.8 -10e-7,-1.48 0.326665,-2.66666 0.98,-3.56 0.85333,-1.15999 1.986663,-1.73999 3.4,-1.74 1.293327,1e-5 2.326659,0.48001 3.1,1.44 0.786657,0.94667 1.17999,2.08 1.18,3.4 m -1.02,-0.26 c -0.02667,-1 -0.333342,-1.85333 -0.92,-2.56 -0.586674,-0.71999 -1.366673,-1.07999 -2.34,-1.08 -1.000005,10e-6 -1.813337,0.35334 -2.44,1.06 -0.613336,0.69334 -0.920002,1.55334 -0.92,2.58 l 6.62,0" />
        <path
           id="path3270"
           style="font-size:20px"
           d="m 73.26625,214.609 c -0.133343,0.98667 -0.560009,1.80667 -1.28,2.46 -0.720007,0.64 -1.59334,0.96 -2.62,0.96 -1.173338,0 -2.153337,-0.39334 -2.94,-1.18 -0.933335,-0.93333 -1.400001,-2.29333 -1.4,-4.08 -10e-7,-1.78666 0.466665,-3.14666 1.4,-4.08 0.786663,-0.78666 1.766662,-1.17999 2.94,-1.18 1.039994,1e-5 1.913326,0.31334 2.62,0.94 0.706658,0.61334 1.119991,1.42667 1.24,2.44 l -1.04,0 c -0.106675,-0.70666 -0.420008,-1.27999 -0.94,-1.72 -0.506674,-0.45333 -1.13334,-0.67999 -1.88,-0.68 -0.933338,1e-5 -1.673337,0.28667 -2.22,0.86 -0.733336,0.76001 -1.100002,1.9 -1.1,3.42 -2e-6,1.53333 0.366664,2.68 1.1,3.44 0.53333,0.56 1.273329,0.84 2.22,0.84 0.74666,0 1.373326,-0.22667 1.88,-0.68 0.519992,-0.46667 0.839992,-1.05333 0.96,-1.76 l 1.06,0" />
        <path
           id="path3272"
           style="font-size:20px"
           d="m 80.860625,217.669 c -0.746673,0.16 -1.300005,0.24 -1.66,0.24 -1.720003,0 -2.580002,-0.97333 -2.58,-2.92 l 0,-6.3 -2,0 0,-0.92 2,0 0,-2.76 1,-0.24 0,3 3.1,0 0,0.92 -3.1,0 0,6.26 c -3e-6,0.65333 0.119996,1.15333 0.36,1.5 0.239996,0.34667 0.673329,0.52 1.3,0.52 0.399994,0 0.926661,-0.06 1.58,-0.18 l 0,0.88" />
        <path
           id="path3274"
           style="font-size:20px"
           d="m 84.823437,204.989 -1.399999,0 0,-1.4 1.399999,0 0,1.4 m -0.16,12.78 -1.06,0 0,-10 1.06,0 0,10" />
        <path
           id="path3276"
           style="font-size:20px"
           d="m 95.09875,208.709 c 0.946657,0.94667 1.41999,2.3 1.42,4.06 -1e-5,1.76 -0.473343,3.11333 -1.42,4.06 -0.800008,0.8 -1.77334,1.2 -2.92,1.2 -1.146671,0 -2.120003,-0.4 -2.92,-1.2 -0.946668,-0.94667 -1.420001,-2.3 -1.42,-4.06 -10e-7,-1.76 0.473332,-3.11333 1.42,-4.06 0.799997,-0.79999 1.773329,-1.19999 2.92,-1.2 1.14666,1e-5 2.119992,0.40001 2.92,1.2 m -0.72,7.46 c 0.746658,-0.77333 1.119991,-1.90667 1.12,-3.4 -9e-6,-1.49333 -0.373342,-2.62666 -1.12,-3.4 -0.560007,-0.58666 -1.29334,-0.87999 -2.2,-0.88 -0.906671,1e-5 -1.640004,0.29334 -2.2,0.88 -0.746669,0.77334 -1.120002,1.90667 -1.12,3.4 -2e-6,1.49333 0.373331,2.62667 1.12,3.4 0.559996,0.58667 1.293329,0.88 2.2,0.88 0.90666,0 1.639993,-0.29333 2.2,-0.88" />
        <path
           id="path3278"
           style="font-size:20px"
           d="m 107.53625,217.769 -1,0 0,-6.54 c -10e-6,-1.82666 -0.86001,-2.73999 -2.58,-2.74 -1.14667,1e-5 -1.98667,0.41334 -2.52,1.24 -0.53334,0.81334 -0.8,1.82667 -0.8,3.04 l 0,5 -1,0 0,-10 0.88,0 0.12,1.82 c 0.28,-0.62666 0.73333,-1.12666 1.36,-1.5 0.64,-0.38666 1.31333,-0.57999 2.02,-0.58 1.13333,1e-5 1.99999,0.32667 2.6,0.98 0.61332,0.65334 0.91999,1.54667 0.92,2.68 l 0,6.6" />
      </g>
      <g
         id="flowRoot3055-3"
         style="font-size:11px;font-style:normal;font-variant:normal;font-weight:200;font-stretch:normal;text-align:center;line-height:125%;letter-spacing:0px;word-spacing:0px;text-anchor:middle;fill:#000000;fill-opacity:1;stroke:none;font-family:Akkurat-Light;-inkscape-font-specification:Akkurat-Light Ultra-Light"
         transform="matrix(0.73668683,0,0,0.73668683,73.906018,727.71262)">
        <path
           id="path3214"
           style="font-size:20px"
           d="m 42.270781,217.769 -1,0 0,-6.54 c -1.4e-5,-1.85333 -0.793347,-2.77999 -2.38,-2.78 -0.693345,10e-6 -1.286677,0.22667 -1.78,0.68 -0.786676,0.74667 -1.180009,1.74 -1.18,2.98 l 0,5.66 -1.02,0 0,-6.54 c -8e-6,-1.85333 -0.800007,-2.77999 -2.4,-2.78 -0.706672,10e-6 -1.300004,0.22667 -1.78,0.68 -0.800003,0.74667 -1.200003,1.96 -1.2,3.64 l 0,5 -1,0 0,-10 0.88,0 0.12,1.72 c 0.266664,-0.59999 0.666663,-1.07999 1.2,-1.44 0.533329,-0.35999 1.146662,-0.53999 1.84,-0.54 1.666659,1e-5 2.719992,0.72001 3.16,2.16 0.279991,-0.65333 0.686657,-1.17333 1.22,-1.56 0.546656,-0.39999 1.213322,-0.59999 2,-0.6 1.119987,1e-5 1.953319,0.33334 2.5,1 0.546651,0.65334 0.819985,1.54001 0.82,2.66 l 0,6.6" />
        <path
           id="path3216"
           style="font-size:20px"
           d="m 54.310781,217.769 c -0.24001,0.04 -0.40001,0.06 -0.48,0.06 -1.053342,0 -1.580008,-0.65333 -1.58,-1.96 -0.266674,0.68 -0.733341,1.21333 -1.4,1.6 -0.666673,0.37333 -1.400005,0.56 -2.2,0.56 -1.000003,0 -1.826669,-0.28 -2.48,-0.84 -0.640001,-0.56 -0.960001,-1.30667 -0.96,-2.24 -10e-7,-0.86667 0.306665,-1.56 0.92,-2.08 0.613331,-0.53333 1.426663,-0.83333 2.44,-0.9 l 3.68,-0.26 0,-0.98 c -8e-6,-1.51999 -0.880007,-2.27999 -2.64,-2.28 -0.826671,10e-6 -1.500004,0.18667 -2.02,0.56 -0.520003,0.37334 -0.806669,0.92001 -0.86,1.64 l -1,0 c 0.06667,-0.98666 0.453331,-1.75333 1.16,-2.3 0.706663,-0.55999 1.613329,-0.83999 2.72,-0.84 0.759994,1e-5 1.44666,0.14667 2.06,0.44 0.626659,0.29334 1.066658,0.76001 1.32,1.4 0.173324,0.45334 0.259991,1.09334 0.26,1.92 l 0,4.56 c -9e-6,0.37333 0.04666,0.64667 0.14,0.82 0.106657,0.17333 0.319991,0.26 0.64,0.26 0.11999,0 0.213323,-0.007 0.28,-0.02 l 0,0.88 m -2.06,-4.62 0,-0.52 -3.58,0.22 c -0.74667,0.0533 -1.340003,0.26667 -1.78,0.64 -0.440002,0.37334 -0.660002,0.86 -0.66,1.46 -2e-6,0.69333 0.226665,1.22667 0.68,1.6 0.466664,0.37333 1.07333,0.56 1.82,0.56 1.173328,0 2.053327,-0.38667 2.64,-1.16 0.586659,-0.78667 0.879992,-1.72 0.88,-2.8" />
        <path
           id="path3218"
           style="font-size:20px"
           d="m 65.541719,219.269 c -1.1e-5,0.70666 -0.253344,1.32666 -0.76,1.86 -0.773342,0.78666 -2.093341,1.17999 -3.96,1.18 -1.720004,-1e-5 -2.960003,-0.38667 -3.72,-1.16 -0.466668,-0.49334 -0.700001,-1.09334 -0.7,-1.8 -10e-7,-0.49334 0.133332,-0.95334 0.4,-1.38 0.266665,-0.42667 0.633331,-0.74667 1.1,-0.96 -0.346669,-0.0933 -0.646669,-0.3 -0.9,-0.62 -0.240002,-0.33333 -0.360002,-0.67333 -0.36,-1.02 -2e-6,-0.8 0.399998,-1.43333 1.2,-1.9 -0.666669,-0.64 -1.000002,-1.46 -1,-2.46 -2e-6,-1.05333 0.353331,-1.89999 1.06,-2.54 0.706663,-0.63999 1.599996,-0.95999 2.68,-0.96 0.879994,1e-5 1.659993,0.22667 2.34,0.68 0.119992,-0.41333 0.366658,-0.73999 0.74,-0.98 0.386658,-0.25332 0.813324,-0.37999 1.28,-0.38 0.03999,1e-5 0.09999,0.007 0.18,0.02 0.09332,0.0133 0.15999,0.02 0.2,0.02 l 0,0.86 c -0.04001,10e-6 -0.106677,-0.007 -0.2,-0.02 -0.08001,-0.0133 -0.14001,-0.02 -0.18,-0.02 -0.36001,1e-5 -0.666676,0.10001 -0.92,0.3 -0.240009,0.18667 -0.393342,0.44667 -0.46,0.78 0.533324,0.61334 0.799991,1.36001 0.8,2.24 -9e-6,1.05334 -0.360009,1.89334 -1.08,2.52 -0.720008,0.62667 -1.620007,0.94 -2.7,0.94 -0.746671,0 -1.413337,-0.15333 -2,-0.46 -0.66667,0.25333 -1.000003,0.66667 -1,1.24 -3e-6,0.44 0.233331,0.75333 0.7,0.94 0.279996,0.10667 0.726663,0.16 1.34,0.16 l 2.18,0 c 1.319992,0 2.299991,0.32667 2.94,0.98 0.533323,0.53333 0.799989,1.18 0.8,1.94 m -2.98,-6.38 c 0.533325,-0.46666 0.799992,-1.09333 0.8,-1.88 -8e-6,-0.78666 -0.266675,-1.41333 -0.8,-1.88 -0.520007,-0.47999 -1.180006,-0.71999 -1.98,-0.72 -0.800005,1e-5 -1.460004,0.24001 -1.98,0.72 -0.520003,0.46667 -0.780003,1.09334 -0.78,1.88 -3e-6,0.78667 0.259997,1.41334 0.78,1.88 0.519996,0.45334 1.179995,0.68 1.98,0.68 0.799994,0 1.459993,-0.22666 1.98,-0.68 m 1.98,6.38 c -1e-5,-0.48 -0.160009,-0.89334 -0.48,-1.24 -0.466675,-0.49334 -1.273341,-0.74 -2.42,-0.74 l -2.64,0 c -0.46667,0.10666 -0.860003,0.34 -1.18,0.7 -0.320002,0.36 -0.480002,0.81333 -0.48,1.36 -2e-6,0.50666 0.179997,0.92666 0.54,1.26 0.559997,0.53333 1.546662,0.79999 2.96,0.8 1.533326,-1e-5 2.593325,-0.29334 3.18,-0.88 0.346657,-0.34667 0.51999,-0.76667 0.52,-1.26" />
        <path
           id="path3220"
           style="font-size:20px"
           d="m 75.805781,217.769 -1,0 0,-6.54 c -9e-6,-1.82666 -0.860008,-2.73999 -2.58,-2.74 -1.146672,1e-5 -1.986671,0.41334 -2.52,1.24 -0.533336,0.81334 -0.800003,1.82667 -0.8,3.04 l 0,5 -1,0 0,-10 0.88,0 0.12,1.82 c 0.279997,-0.62666 0.73333,-1.12666 1.36,-1.5 0.639995,-0.38666 1.313328,-0.57999 2.02,-0.58 1.133326,1e-5 1.999992,0.32667 2.6,0.98 0.613324,0.65334 0.91999,1.54667 0.92,2.68 l 0,6.6" />
        <path
           id="path3222"
           style="font-size:20px"
           d="m 87.385469,212.349 c -1e-5,0.08 -0.0067,0.19334 -0.02,0.34 -1e-5,0.13334 -1e-5,0.24 0,0.32 l -7.64,0 c 0.02666,1.2 0.373331,2.2 1.04,3 0.599996,0.70667 1.406662,1.06 2.42,1.06 0.893327,0 1.619993,-0.29333 2.18,-0.88 0.399992,-0.42667 0.653325,-0.9 0.76,-1.42 l 1.04,0 c -0.133343,0.8 -0.506676,1.5 -1.12,2.1 -0.773341,0.77333 -1.726674,1.16 -2.86,1.16 -1.293338,0 -2.353337,-0.47334 -3.18,-1.42 -0.853335,-1 -1.280001,-2.26667 -1.28,-3.8 -10e-7,-1.48 0.326665,-2.66666 0.98,-3.56 0.85333,-1.15999 1.986662,-1.73999 3.4,-1.74 1.293326,1e-5 2.326659,0.48001 3.1,1.44 0.786657,0.94667 1.17999,2.08 1.18,3.4 m -1.02,-0.26 c -0.02668,-1 -0.333342,-1.85333 -0.92,-2.56 -0.586674,-0.71999 -1.366673,-1.07999 -2.34,-1.08 -1.000005,10e-6 -1.813337,0.35334 -2.44,1.06 -0.613336,0.69334 -0.920002,1.55334 -0.92,2.58 l 6.62,0" />
        <path
           id="path3224"
           style="font-size:20px"
           d="m 95.106719,217.669 c -0.746673,0.16 -1.300006,0.24 -1.66,0.24 -1.720004,0 -2.580003,-0.97333 -2.58,-2.92 l 0,-6.3 -2,0 0,-0.92 2,0 0,-2.76 1,-0.24 0,3 3.1,0 0,0.92 -3.1,0 0,6.26 c -4e-6,0.65333 0.119996,1.15333 0.36,1.5 0.239996,0.34667 0.673329,0.52 1.3,0.52 0.399994,0 0.92666,-0.06 1.58,-0.18 l 0,0.88" />
        <path
           id="path3226"
           style="font-size:20px"
           d="m 99.069531,204.989 -1.4,0 0,-1.4 1.4,0 0,1.4 m -0.16,12.78 -1.06,0 0,-10 1.06,0 0,10" />
        <path
           id="path3228"
           style="font-size:20px"
           d="m 110.32484,214.609 c -0.13334,0.98667 -0.56001,1.80667 -1.28,2.46 -0.72,0.64 -1.59334,0.96 -2.62,0.96 -1.17333,0 -2.15333,-0.39334 -2.94,-1.18 -0.93333,-0.93333 -1.4,-2.29333 -1.4,-4.08 0,-1.78666 0.46667,-3.14666 1.4,-4.08 0.78667,-0.78666 1.76667,-1.17999 2.94,-1.18 1.04,1e-5 1.91333,0.31334 2.62,0.94 0.70666,0.61334 1.11999,1.42667 1.24,2.44 l -1.04,0 c -0.10667,-0.70666 -0.42,-1.27999 -0.94,-1.72 -0.50667,-0.45333 -1.13334,-0.67999 -1.88,-0.68 -0.93333,1e-5 -1.67333,0.28667 -2.22,0.86 -0.73333,0.76001 -1.1,1.9 -1.1,3.42 0,1.53333 0.36667,2.68 1.1,3.44 0.53333,0.56 1.27333,0.84 2.22,0.84 0.74666,0 1.37333,-0.22667 1.88,-0.68 0.52,-0.46667 0.84,-1.05333 0.96,-1.76 l 1.06,0" />
        <path
           id="path3230"
           style="font-size:20px"
           d="m 55.718281,229.229 c -0.53334,-0.08 -1.013339,-0.11999 -1.44,-0.12 -1.266671,1e-5 -1.900003,0.64668 -1.9,1.94 l 0,1.72 3.14,0 0,0.92 -3.14,0 0,9.08 -1,0 0,-9.08 -2,0 0,-0.92 2,0 0,-1.76 c -2e-6,-0.79999 0.239997,-1.46666 0.72,-2 0.49333,-0.53332 1.193329,-0.79999 2.1,-0.8 0.533328,1e-5 1.039994,0.04 1.52,0.12 l 0,0.9" />
        <path
           id="path3232"
           style="font-size:20px"
           d="m 59.069531,229.989 -1.4,0 0,-1.4 1.4,0 0,1.4 m -0.16,12.78 -1.06,0 0,-10 1.06,0 0,10" />
        <path
           id="path3234"
           style="font-size:20px"
           d="m 70.744844,237.349 c -1e-5,0.08 -0.0067,0.19334 -0.02,0.34 -1e-5,0.13334 -1e-5,0.24 0,0.32 l -7.64,0 c 0.02666,1.2 0.373331,2.2 1.04,3 0.599996,0.70667 1.406662,1.06 2.42,1.06 0.893327,0 1.619993,-0.29333 2.18,-0.88 0.399992,-0.42667 0.653325,-0.9 0.76,-1.42 l 1.04,0 c -0.133343,0.8 -0.506676,1.5 -1.12,2.1 -0.773341,0.77333 -1.726674,1.16 -2.86,1.16 -1.293338,0 -2.353337,-0.47334 -3.18,-1.42 -0.853335,-1 -1.280001,-2.26667 -1.28,-3.8 -10e-7,-1.48 0.326665,-2.66666 0.98,-3.56 0.85333,-1.15999 1.986662,-1.73999 3.4,-1.74 1.293326,1e-5 2.326659,0.48001 3.1,1.44 0.786657,0.94667 1.17999,2.08 1.18,3.4 m -1.02,-0.26 c -0.02668,-1 -0.333342,-1.85333 -0.92,-2.56 -0.586674,-0.71999 -1.366673,-1.07999 -2.34,-1.08 -1.000005,10e-6 -1.813337,0.35334 -2.44,1.06 -0.613336,0.69334 -0.920002,1.55334 -0.92,2.58 l 6.62,0" />
        <path
           id="path3236"
           style="font-size:20px"
           d="m 76.566094,242.769 c -0.293338,0.08 -0.593338,0.12 -0.9,0.12 -1.333336,0 -2.000002,-0.70667 -2,-2.12 l 0,-12.44 1,0 0,12.4 c -3e-6,0.8 0.346663,1.2 1.04,1.2 0.386662,0 0.673328,-0.0133 0.86,-0.04 l 0,0.88" />
        <path
           id="path3238"
           style="font-size:20px"
           d="m 87.032031,242.769 -0.88,0 -0.12,-1.76 c -0.266675,0.6 -0.713341,1.08667 -1.34,1.46 -0.626673,0.37333 -1.286672,0.56 -1.98,0.56 -1.066671,0 -1.953337,-0.31334 -2.66,-0.94 -1.093335,-0.96 -1.640001,-2.39333 -1.64,-4.3 -10e-7,-1.84 0.519999,-3.25333 1.56,-4.24 0.719997,-0.69333 1.626663,-1.03999 2.72,-1.04 0.706661,1e-5 1.373327,0.18001 2,0.54 0.626659,0.36001 1.073325,0.82667 1.34,1.4 l 0,-6.12 1,0 0,14.44 m -0.98,-5 c -8e-6,-1.54666 -0.420008,-2.71333 -1.26,-3.5 -0.546673,-0.51999 -1.246673,-0.77999 -2.1,-0.78 -0.866671,1e-5 -1.580004,0.29334 -2.14,0.88 -0.746669,0.80001 -1.120002,1.93334 -1.12,3.4 -2e-6,1.6 0.439998,2.79333 1.32,3.58 0.53333,0.46667 1.193329,0.7 1.98,0.7 0.799994,0 1.479993,-0.26667 2.04,-0.8 0.853325,-0.84 1.279992,-2 1.28,-3.48" />
      </g>
    </g>
  </g>
</svg>
