<?xml version="1.0" encoding="UTF-8" standalone="no"?>
<!-- Created with Inkscape (http://www.inkscape.org/) -->

<svg
   xmlns:dc="http://purl.org/dc/elements/1.1/"
   xmlns:cc="http://creativecommons.org/ns#"
   xmlns:rdf="http://www.w3.org/1999/02/22-rdf-syntax-ns#"
   xmlns:svg="http://www.w3.org/2000/svg"
   xmlns="http://www.w3.org/2000/svg"
   xmlns:sodipodi="http://sodipodi.sourceforge.net/DTD/sodipodi-0.dtd"
   xmlns:inkscape="http://www.inkscape.org/namespaces/inkscape"
   width="400"
   height="200"
   id="svg2"
   version="1.1"
   inkscape:version="0.48.4 r9939"
   sodipodi:docname="mass-spectrometer.svg">
  <defs
     id="defs4" />
  <sodipodi:namedview
     id="base"
     pagecolor="#ffffff"
     bordercolor="#666666"
     borderopacity="1.0"
     inkscape:pageopacity="0.0"
     inkscape:pageshadow="2"
     inkscape:zoom="3.6425"
     inkscape:cx="200"
     inkscape:cy="100"
     inkscape:document-units="px"
     inkscape:current-layer="layer1"
     showgrid="false"
     inkscape:window-width="1876"
     inkscape:window-height="972"
     inkscape:window-x="20"
     inkscape:window-y="52"
     inkscape:window-maximized="0" />
  <metadata
     id="metadata7">
    <rdf:RDF>
      <cc:Work
         rdf:about="">
        <dc:format>image/svg+xml</dc:format>
        <dc:type
           rdf:resource="http://purl.org/dc/dcmitype/StillImage" />
        <dc:title />
      </cc:Work>
    </rdf:RDF>
  </metadata>
  <g
     inkscape:label="Layer 1"
     inkscape:groupmode="layer"
     id="layer1"
     transform="translate(0,-852.36218)">
    <rect
       style="color:#000000;fill:#ffffff;fill-opacity:1;fill-rule:nonzero;stroke:none;stroke-width:1.24500000000000011;marker:none;visibility:visible;display:inline;overflow:visible;enable-background:accumulate"
       id="rect4106"
       width="400"
       height="200"
       x="0"
       y="852.36218" />
    <g
       id="g4046"
       transform="matrix(0.79495953,0,0,0.79495953,54.83464,175.71815)">
      <path
         transform="matrix(1.7801821,0,0,1.7801821,-186.99886,699.80626)"
         d="m 302.01073,162.06435 c 0,33.53686 -27.187,60.72386 -60.72386,60.72386 -33.53687,0 -60.72387,-27.187 -60.72387,-60.72386 0,-33.53687 27.187,-60.72387 60.72387,-60.72387 33.53686,0 60.72386,27.187 60.72386,60.72387 z"
         sodipodi:ry="60.723862"
         sodipodi:rx="60.723862"
         sodipodi:cy="162.06435"
         sodipodi:cx="241.28687"
         id="path2987-0"
         style="color:#000000;fill:none;stroke:#c8c8c8;stroke-width:18.40117455;stroke-linecap:square;stroke-miterlimit:4;stroke-opacity:1;stroke-dasharray:none;stroke-dashoffset:0;marker:none;visibility:visible;display:inline;overflow:visible;enable-background:accumulate"
         sodipodi:type="arc" />
      <path
         transform="matrix(1.7337596,0,0,1.7337596,-178.88526,710.41726)"
         d="m 302.01073,162.06435 c 0,33.53686 -27.187,60.72386 -60.72386,60.72386 -33.53687,0 -60.72387,-27.187 -60.72387,-60.72386 0,-33.53687 27.187,-60.72387 60.72387,-60.72387 33.53686,0 60.72386,27.187 60.72386,60.72387 z"
         sodipodi:ry="60.723862"
         sodipodi:rx="60.723862"
         sodipodi:cy="162.06435"
         sodipodi:cx="241.28687"
         id="path2987-5"
         style="color:#000000;fill:none;stroke:#000000;stroke-width:1.25600386;stroke-linecap:square;stroke-miterlimit:4;stroke-opacity:1;stroke-dasharray:1.25600386, 2.51200771;stroke-dashoffset:0;marker:none;visibility:visible;display:inline;overflow:visible;enable-background:accumulate"
         sodipodi:type="arc" />
      <path
         transform="matrix(1.8329391,0,0,1.8329391,-196.73187,688.25969)"
         d="m 302.01073,162.06435 c 0,33.53686 -27.187,60.72386 -60.72386,60.72386 -33.53687,0 -60.72387,-27.187 -60.72387,-60.72386 0,-33.53687 27.187,-60.72387 60.72387,-60.72387 33.53686,0 60.72386,27.187 60.72386,60.72387 z"
         sodipodi:ry="60.723862"
         sodipodi:rx="60.723862"
         sodipodi:cy="162.06435"
         sodipodi:cx="241.28687"
         id="path2987-5-8"
         style="color:#000000;fill:none;stroke:#000000;stroke-width:1.17869365;stroke-linecap:square;stroke-miterlimit:4;stroke-opacity:1;stroke-dasharray:1.17869362, 2.35738724;stroke-dashoffset:0;marker:none;visibility:visible;display:inline;overflow:visible;enable-background:accumulate"
         sodipodi:type="arc" />
      <rect
         y="856.99255"
         x="242.53575"
         height="262.6355"
         width="164.14719"
         id="rect3885"
         style="color:#000000;fill:#ffffff;fill-opacity:1;fill-rule:nonzero;stroke:none;stroke-width:1;marker:none;visibility:visible;display:inline;overflow:visible;enable-background:accumulate" />
      <rect
         transform="matrix(0,-1,1,0,0,0)"
         y="111.21793"
         x="-1124.7804"
         height="262.63556"
         width="136.47012"
         id="rect3885-1"
         style="color:#000000;fill:#ffffff;fill-opacity:1;fill-rule:nonzero;stroke:none;stroke-width:1;marker:none;visibility:visible;display:inline;overflow:visible;enable-background:accumulate" />
      <path
         sodipodi:nodetypes="cc"
         inkscape:connector-curvature="0"
         id="path3778-4"
         d="m 134.19856,1044.007 0,-58.15901"
         style="fill:none;stroke:#000000;stroke-width:2.18862915;stroke-linecap:square;stroke-linejoin:miter;stroke-miterlimit:4;stroke-opacity:1;stroke-dasharray:none" />
      <path
         sodipodi:nodetypes="cc"
         inkscape:connector-curvature="0"
         id="path3778"
         d="m 243.65821,886.12282 9.2679,0"
         style="fill:none;stroke:#000000;stroke-width:2.18862915;stroke-linecap:square;stroke-linejoin:miter;stroke-miterlimit:4;stroke-opacity:1;stroke-dasharray:none" />
      <path
         sodipodi:nodetypes="cc"
         inkscape:connector-curvature="0"
         id="path3778-7"
         d="m 243.65821,874.02471 9.2679,0"
         style="fill:none;stroke:#000000;stroke-width:2.18862915;stroke-linecap:square;stroke-linejoin:miter;stroke-miterlimit:4;stroke-opacity:1;stroke-dasharray:none" />
      <rect
         y="864.15558"
         x="255.16003"
         height="32.221039"
         width="7.6610041"
         id="rect3993"
         style="color:#000000;fill:#008080;fill-opacity:1;fill-rule:nonzero;stroke:#333333;stroke-width:0.54715729;stroke-miterlimit:4;stroke-opacity:1;stroke-dasharray:none;marker:none;visibility:visible;display:inline;overflow:visible;enable-background:accumulate" />
      <rect
         transform="matrix(0,-1,1,0,0,0)"
         y="118.08805"
         x="-1008.3601"
         height="32.221035"
         width="15.772601"
         id="rect3993-2"
         style="color:#000000;fill:#2a7fff;fill-opacity:1;fill-rule:nonzero;stroke:#333333;stroke-width:0.54715729;stroke-miterlimit:4;stroke-opacity:1;stroke-dasharray:none;marker:none;visibility:visible;display:inline;overflow:visible;enable-background:accumulate" />
      <path
         inkscape:connector-curvature="0"
         d="m 49.93115,996.28208 -1.031362,0 0,-1.03136 1.031362,0 0,1.03136 m -0.11787,9.41482 -0.780888,0 0,-7.36683 0.780888,0 0,7.36683"
         style="font-size:20px;font-style:normal;font-variant:normal;font-weight:200;font-stretch:normal;line-height:125%;letter-spacing:0px;word-spacing:0px;fill:#000000;fill-opacity:1;stroke:none;font-family:Akkurat-Light;-inkscape-font-specification:Akkurat-Light Ultra-Light"
         id="path3241" />
      <path
         inkscape:connector-curvature="0"
         d="m 57.500837,999.02255 c 0.69739,0.6974 1.046088,1.69435 1.046095,2.99095 -7e-6,1.2966 -0.348705,2.2935 -1.046095,2.9909 -0.589355,0.5894 -1.306396,0.8841 -2.151126,0.8841 -0.844736,0 -1.561778,-0.2947 -2.151125,-0.8841 -0.697398,-0.6974 -1.046096,-1.6943 -1.046096,-2.9909 0,-1.2966 0.348698,-2.29355 1.046096,-2.99095 0.589347,-0.58934 1.306389,-0.88402 2.151125,-0.88402 0.84473,0 1.561771,0.29468 2.151126,0.88402 m -0.530415,5.49565 c 0.550054,-0.5697 0.825084,-1.4046 0.82509,-2.5047 -6e-6,-1.1001 -0.275036,-1.935 -0.82509,-2.50474 -0.412549,-0.43218 -0.952786,-0.64827 -1.620711,-0.64828 -0.667932,10e-6 -1.208168,0.2161 -1.62071,0.64828 -0.550062,0.56974 -0.825091,1.40464 -0.82509,2.50474 -10e-7,1.1001 0.275028,1.935 0.82509,2.5047 0.412542,0.4322 0.952778,0.6483 1.62071,0.6483 0.667925,0 1.208162,-0.2161 1.620711,-0.6483"
         style="font-size:20px;font-style:normal;font-variant:normal;font-weight:200;font-stretch:normal;line-height:125%;letter-spacing:0px;word-spacing:0px;fill:#000000;fill-opacity:1;stroke:none;font-family:Akkurat-Light;-inkscape-font-specification:Akkurat-Light Ultra-Light"
         id="path3243" />
      <path
         inkscape:connector-curvature="0"
         d="m 66.663379,1005.6969 -0.736686,0 0,-4.8179 c -6e-6,-1.34567 -0.633557,-2.01851 -1.900653,-2.01852 -0.844737,10e-6 -1.463553,0.3045 -1.85645,0.91349 -0.392902,0.59913 -0.589351,1.34573 -0.58935,2.23953 l 0,3.6834 -0.736687,0 0,-7.36683 0.648285,0 0.0884,1.34077 c 0.20627,-0.46166 0.540235,-0.83 1.001895,-1.10503 0.471476,-0.28485 0.967511,-0.42728 1.488107,-0.42728 0.834906,0 1.473367,0.24065 1.915385,0.72195 0.451828,0.48131 0.677746,1.13941 0.677752,1.97432 l 0,4.8621"
         style="font-size:20px;font-style:normal;font-variant:normal;font-weight:200;font-stretch:normal;line-height:125%;letter-spacing:0px;word-spacing:0px;fill:#000000;fill-opacity:1;stroke:none;font-family:Akkurat-Light;-inkscape-font-specification:Akkurat-Light Ultra-Light"
         id="path3245" />
      <path
         inkscape:connector-curvature="0"
         d="m 70.420252,996.28208 -1.031361,0 0,-1.03136 1.031361,0 0,1.03136 m -0.11787,9.41482 -0.780888,0 0,-7.36683 0.780888,0 0,7.36683"
         style="font-size:20px;font-style:normal;font-variant:normal;font-weight:200;font-stretch:normal;line-height:125%;letter-spacing:0px;word-spacing:0px;fill:#000000;fill-opacity:1;stroke:none;font-family:Akkurat-Light;-inkscape-font-specification:Akkurat-Light Ultra-Light"
         id="path3247" />
      <path
         inkscape:connector-curvature="0"
         d="m 78.269881,1005.6969 -5.554619,0 0,-0.8251 4.714795,-5.84925 -4.714795,0 0,-0.69248 5.510418,0 0,0.81035 -4.714797,5.84928 4.758998,0 0,0.7072"
         style="font-size:20px;font-style:normal;font-variant:normal;font-weight:200;font-stretch:normal;line-height:125%;letter-spacing:0px;word-spacing:0px;fill:#000000;fill-opacity:1;stroke:none;font-family:Akkurat-Light;-inkscape-font-specification:Akkurat-Light Ultra-Light"
         id="path3249" />
      <path
         inkscape:connector-curvature="0"
         d="m 86.626672,1005.6969 c -0.176813,0.029 -0.294682,0.044 -0.35361,0.044 -0.775983,0 -1.163971,-0.4813 -1.163965,-1.4439 -0.196456,0.501 -0.540242,0.8939 -1.031362,1.1787 -0.491128,0.2751 -1.031365,0.4126 -1.620711,0.4126 -0.736689,0 -1.345683,-0.2063 -1.826983,-0.6188 -0.471481,-0.4126 -0.70722,-0.9627 -0.70722,-1.6502 0,-0.6385 0.225917,-1.1493 0.677752,-1.5323 0.451833,-0.3929 1.051005,-0.6139 1.797516,-0.663 l 2.711008,-0.1916 0,-0.7219 c -6e-6,-1.1198 -0.64829,-1.67968 -1.944853,-1.67969 -0.608998,10e-6 -1.105034,0.13752 -1.488107,0.41255 -0.38308,0.27503 -0.594263,0.67776 -0.633551,1.20814 l -0.736687,0 c 0.04911,-0.72684 0.333963,-1.29163 0.854557,-1.69436 0.520589,-0.41253 1.188517,-0.61881 2.003788,-0.61881 0.559877,0 1.065735,0.10805 1.517575,0.32414 0.461651,0.2161 0.785792,0.55989 0.972426,1.03136 0.127686,0.33397 0.191532,0.80547 0.191539,1.41447 l 0,3.3593 c -7e-6,0.275 0.03437,0.4764 0.103136,0.604 0.07857,0.1277 0.235733,0.1916 0.47148,0.1916 0.08839,0 0.157152,-0.01 0.206272,-0.015 l 0,0.6483 m -1.517575,-3.4035 0,-0.383 -2.637338,0.162 c -0.550063,0.039 -0.987164,0.1965 -1.311303,0.4715 -0.324144,0.275 -0.486216,0.6336 -0.486213,1.0756 -3e-6,0.5107 0.16698,0.9036 0.500946,1.1787 0.343785,0.275 0.790708,0.4125 1.340771,0.4125 0.864374,0 1.512658,-0.2848 1.944852,-0.8545 0.432184,-0.5796 0.648279,-1.2671 0.648285,-2.0628"
         style="font-size:20px;font-style:normal;font-variant:normal;font-weight:200;font-stretch:normal;line-height:125%;letter-spacing:0px;word-spacing:0px;fill:#000000;fill-opacity:1;stroke:none;font-family:Akkurat-Light;-inkscape-font-specification:Akkurat-Light Ultra-Light"
         id="path3251" />
      <path
         inkscape:connector-curvature="0"
         d="m 92.277751,1005.6233 c -0.550065,0.1178 -0.957697,0.1768 -1.222901,0.1768 -1.267103,0 -1.900653,-0.7171 -1.900652,-2.1512 l 0,-4.64108 -1.473373,0 0,-0.67775 1.473373,0 0,-2.03326 0.736687,-0.1768 0,2.21006 2.283729,0 0,0.67775 -2.283729,0 0,4.61168 c -2e-6,0.4813 0.0884,0.8496 0.265207,1.105 0.176802,0.2554 0.496033,0.3831 0.957693,0.3831 0.294671,0 0.682659,-0.044 1.163966,-0.1326 l 0,0.6483"
         style="font-size:20px;font-style:normal;font-variant:normal;font-weight:200;font-stretch:normal;line-height:125%;letter-spacing:0px;word-spacing:0px;fill:#000000;fill-opacity:1;stroke:none;font-family:Akkurat-Light;-inkscape-font-specification:Akkurat-Light Ultra-Light"
         id="path3253" />
      <path
         inkscape:connector-curvature="0"
         d="m 95.197102,996.28208 -1.031361,0 0,-1.03136 1.031361,0 0,1.03136 m -0.11787,9.41482 -0.780888,0 0,-7.36683 0.780888,0 0,7.36683"
         style="font-size:20px;font-style:normal;font-variant:normal;font-weight:200;font-stretch:normal;line-height:125%;letter-spacing:0px;word-spacing:0px;fill:#000000;fill-opacity:1;stroke:none;font-family:Akkurat-Light;-inkscape-font-specification:Akkurat-Light Ultra-Light"
         id="path3255" />
      <path
         inkscape:connector-curvature="0"
         d="m 102.76679,999.02255 c 0.69739,0.6974 1.04609,1.69435 1.04609,2.99095 0,1.2966 -0.3487,2.2935 -1.04609,2.9909 -0.58936,0.5894 -1.3064,0.8841 -2.15113,0.8841 -0.844733,0 -1.561774,-0.2947 -2.151121,-0.8841 -0.697398,-0.6974 -1.046096,-1.6943 -1.046096,-2.9909 0,-1.2966 0.348698,-2.29355 1.046096,-2.99095 0.589347,-0.58934 1.306388,-0.88402 2.151121,-0.88402 0.84473,0 1.56177,0.29468 2.15113,0.88402 m -0.53041,5.49565 c 0.55005,-0.5697 0.82508,-1.4046 0.82508,-2.5047 0,-1.1001 -0.27503,-1.935 -0.82508,-2.50474 -0.41255,-0.43218 -0.95279,-0.64827 -1.62072,-0.64828 -0.667928,10e-6 -1.208165,0.2161 -1.620707,0.64828 -0.550061,0.56974 -0.825091,1.40464 -0.825089,2.50474 -2e-6,1.1001 0.275028,1.935 0.825089,2.5047 0.412542,0.4322 0.952779,0.6483 1.620707,0.6483 0.66793,0 1.20817,-0.2161 1.62072,-0.6483"
         style="font-size:20px;font-style:normal;font-variant:normal;font-weight:200;font-stretch:normal;line-height:125%;letter-spacing:0px;word-spacing:0px;fill:#000000;fill-opacity:1;stroke:none;font-family:Akkurat-Light;-inkscape-font-specification:Akkurat-Light Ultra-Light"
         id="path3257" />
      <path
         inkscape:connector-curvature="0"
         d="m 111.92933,1005.6969 -0.73669,0 0,-4.8179 c 0,-1.34567 -0.63355,-2.01851 -1.90065,-2.01852 -0.84474,10e-6 -1.46355,0.3045 -1.85644,0.91349 -0.39291,0.59913 -0.58936,1.34573 -0.58935,2.23953 l 0,3.6834 -0.73669,0 0,-7.36683 0.64828,0 0.0884,1.34077 c 0.20626,-0.46166 0.54022,-0.83 1.00189,-1.10503 0.47147,-0.28485 0.96751,-0.42728 1.48811,-0.42728 0.8349,0 1.47336,0.24065 1.91538,0.72195 0.45183,0.48131 0.67775,1.13941 0.67775,1.97432 l 0,4.8621"
         style="font-size:20px;font-style:normal;font-variant:normal;font-weight:200;font-stretch:normal;line-height:125%;letter-spacing:0px;word-spacing:0px;fill:#000000;fill-opacity:1;stroke:none;font-family:Akkurat-Light;-inkscape-font-specification:Akkurat-Light Ultra-Light"
         id="path3259" />
      <path
         inkscape:connector-curvature="0"
         d="m 273.29006,885.48919 -0.64828,0 -0.0884,-1.29656 c -0.19646,0.44201 -0.52551,0.80053 -0.98716,1.07556 -0.46167,0.27503 -0.94788,0.41254 -1.45864,0.41254 -0.78581,0 -1.439,-0.23083 -1.95959,-0.69248 -0.80545,-0.70722 -1.20817,-1.76314 -1.20817,-3.16776 0,-1.3555 0.38308,-2.39668 1.14923,-3.12355 0.53042,-0.51077 1.19834,-0.76615 2.00379,-0.76615 0.52059,0 1.01171,0.13261 1.47338,0.39781 0.46165,0.26521 0.7907,0.609 0.98716,1.03136 l 0,-4.50852 0.73668,0 0,10.63775 m -0.72195,-3.68343 c -10e-6,-1.1394 -0.30941,-1.99887 -0.92823,-2.5784 -0.40272,-0.38307 -0.9184,-0.57461 -1.54704,-0.57462 -0.63846,10e-6 -1.16397,0.2161 -1.57651,0.64828 -0.55006,0.58936 -0.82509,1.42427 -0.82509,2.50474 0,1.1787 0.32414,2.05781 0.97243,2.63734 0.3929,0.34379 0.87911,0.51568 1.45864,0.51568 0.58934,0 1.09029,-0.19645 1.50284,-0.58935 0.62863,-0.61882 0.94295,-1.47337 0.94296,-2.56367"
         style="font-size:20px;font-style:normal;font-variant:normal;font-weight:200;font-stretch:normal;line-height:125%;letter-spacing:0px;word-spacing:0px;fill:#000000;fill-opacity:1;stroke:none;font-family:Akkurat-Light;-inkscape-font-specification:Akkurat-Light Ultra-Light"
         id="path3262" />
      <path
         inkscape:connector-curvature="0"
         d="m 281.95327,881.49635 c -10e-6,0.0589 -0.005,0.14243 -0.0147,0.25048 -1e-5,0.0982 -1e-5,0.1768 0,0.23573 l -5.62829,0 c 0.0197,0.88403 0.27503,1.62072 0.76615,2.21007 0.44201,0.52059 1.03627,0.78088 1.78278,0.78088 0.65811,0 1.19343,-0.21609 1.60598,-0.64828 0.29467,-0.31432 0.4813,-0.66302 0.55988,-1.0461 l 0.76616,0 c -0.0982,0.58935 -0.37326,1.10503 -0.82509,1.54705 -0.56971,0.5697 -1.27202,0.85455 -2.10693,0.85455 -0.95278,0 -1.73367,-0.3487 -2.34266,-1.04609 -0.62864,-0.73669 -0.94296,-1.66983 -0.94296,-2.79941 0,-1.0903 0.24065,-1.9645 0.72195,-2.62261 0.62864,-0.85455 1.46355,-1.28183 2.50474,-1.28183 0.95278,0 1.71402,0.35361 2.28373,1.06083 0.57952,0.6974 0.86928,1.53231 0.86929,2.50473 m -0.75142,-0.19154 c -0.0196,-0.73668 -0.24557,-1.36532 -0.67775,-1.88592 -0.4322,-0.5304 -1.00681,-0.79561 -1.72385,-0.79562 -0.73669,10e-6 -1.33586,0.2603 -1.79752,0.78089 -0.45183,0.51078 -0.67775,1.14433 -0.67775,1.90065 l 4.87687,0"
         style="font-size:20px;font-style:normal;font-variant:normal;font-weight:200;font-stretch:normal;line-height:125%;letter-spacing:0px;word-spacing:0px;fill:#000000;fill-opacity:1;stroke:none;font-family:Akkurat-Light;-inkscape-font-specification:Akkurat-Light Ultra-Light"
         id="path3264" />
      <path
         inkscape:connector-curvature="0"
         d="m 287.64141,885.41553 c -0.55006,0.11787 -0.95769,0.1768 -1.2229,0.1768 -1.2671,0 -1.90065,-0.71704 -1.90065,-2.15113 l 0,-4.64112 -1.47337,0 0,-0.67775 1.47337,0 0,-2.03326 0.73669,-0.1768 0,2.21006 2.28373,0 0,0.67775 -2.28373,0 0,4.61166 c -10e-6,0.4813 0.0884,0.84964 0.2652,1.10503 0.17681,0.25538 0.49604,0.38307 0.9577,0.38307 0.29467,0 0.68266,-0.0442 1.16396,-0.1326 l 0,0.64829"
         style="font-size:20px;font-style:normal;font-variant:normal;font-weight:200;font-stretch:normal;line-height:125%;letter-spacing:0px;word-spacing:0px;fill:#000000;fill-opacity:1;stroke:none;font-family:Akkurat-Light;-inkscape-font-specification:Akkurat-Light Ultra-Light"
         id="path3266" />
      <path
         inkscape:connector-curvature="0"
         d="m 295.3345,881.49635 c -10e-6,0.0589 -0.005,0.14243 -0.0147,0.25048 -10e-6,0.0982 -10e-6,0.1768 0,0.23573 l -5.62829,0 c 0.0197,0.88403 0.27503,1.62072 0.76616,2.21007 0.44201,0.52059 1.03627,0.78088 1.78278,0.78088 0.6581,0 1.19343,-0.21609 1.60598,-0.64828 0.29467,-0.31432 0.48129,-0.66302 0.55988,-1.0461 l 0.76615,0 c -0.0982,0.58935 -0.37326,1.10503 -0.82509,1.54705 -0.56971,0.5697 -1.27201,0.85455 -2.10692,0.85455 -0.95278,0 -1.73367,-0.3487 -2.34266,-1.04609 -0.62864,-0.73669 -0.94296,-1.66983 -0.94296,-2.79941 0,-1.0903 0.24065,-1.9645 0.72195,-2.62261 0.62864,-0.85455 1.46355,-1.28183 2.50474,-1.28183 0.95277,0 1.71401,0.35361 2.28372,1.06083 0.57952,0.6974 0.86929,1.53231 0.8693,2.50473 m -0.75143,-0.19154 c -0.0196,-0.73668 -0.24556,-1.36532 -0.67775,-1.88592 -0.43219,-0.5304 -1.00681,-0.79561 -1.72384,-0.79562 -0.7367,10e-6 -1.33587,0.2603 -1.79752,0.78089 -0.45184,0.51078 -0.67775,1.14433 -0.67775,1.90065 l 4.87686,0"
         style="font-size:20px;font-style:normal;font-variant:normal;font-weight:200;font-stretch:normal;line-height:125%;letter-spacing:0px;word-spacing:0px;fill:#000000;fill-opacity:1;stroke:none;font-family:Akkurat-Light;-inkscape-font-specification:Akkurat-Light Ultra-Light"
         id="path3268" />
      <path
         inkscape:connector-curvature="0"
         d="m 302.96749,883.16126 c -0.0982,0.72687 -0.41255,1.33095 -0.94296,1.81225 -0.53042,0.47148 -1.17379,0.70722 -1.93012,0.70722 -0.86438,0 -1.58633,-0.28977 -2.16586,-0.86929 -0.68757,-0.68757 -1.03136,-1.68946 -1.03136,-3.00568 0,-1.31621 0.34379,-2.3181 1.03136,-3.00568 0.57953,-0.57952 1.30148,-0.86929 2.16586,-0.86929 0.76615,0 1.40952,0.23083 1.93012,0.69248 0.52059,0.45184 0.82508,1.05101 0.91349,1.79752 l -0.76615,0 c -0.0786,-0.52059 -0.30941,-0.94295 -0.69249,-1.2671 -0.37326,-0.33396 -0.83491,-0.50094 -1.38497,-0.50095 -0.68757,10e-6 -1.23272,0.21119 -1.63544,0.63355 -0.54024,0.55989 -0.81036,1.39971 -0.81036,2.51947 0,1.12958 0.27012,1.97432 0.81036,2.5342 0.3929,0.41255 0.93804,0.61882 1.63544,0.61882 0.55006,0 1.01171,-0.16699 1.38497,-0.50095 0.38308,-0.34379 0.61882,-0.77597 0.70722,-1.29657 l 0.78089,0"
         style="font-size:20px;font-style:normal;font-variant:normal;font-weight:200;font-stretch:normal;line-height:125%;letter-spacing:0px;word-spacing:0px;fill:#000000;fill-opacity:1;stroke:none;font-family:Akkurat-Light;-inkscape-font-specification:Akkurat-Light Ultra-Light"
         id="path3270" />
      <path
         inkscape:connector-curvature="0"
         d="m 308.56217,885.41553 c -0.55007,0.11787 -0.9577,0.1768 -1.2229,0.1768 -1.26711,0 -1.90066,-0.71704 -1.90065,-2.15113 l 0,-4.64112 -1.47338,0 0,-0.67775 1.47338,0 0,-2.03326 0.73668,-0.1768 0,2.21006 2.28373,0 0,0.67775 -2.28373,0 0,4.61166 c 0,0.4813 0.0884,0.84964 0.26521,1.10503 0.1768,0.25538 0.49603,0.38307 0.95769,0.38307 0.29467,0 0.68266,-0.0442 1.16397,-0.1326 l 0,0.64829"
         style="font-size:20px;font-style:normal;font-variant:normal;font-weight:200;font-stretch:normal;line-height:125%;letter-spacing:0px;word-spacing:0px;fill:#000000;fill-opacity:1;stroke:none;font-family:Akkurat-Light;-inkscape-font-specification:Akkurat-Light Ultra-Light"
         id="path3272" />
      <path
         inkscape:connector-curvature="0"
         d="m 311.48152,876.07434 -1.03136,0 0,-1.03136 1.03136,0 0,1.03136 m -0.11787,9.41485 -0.78089,0 0,-7.36686 0.78089,0 0,7.36686"
         style="font-size:20px;font-style:normal;font-variant:normal;font-weight:200;font-stretch:normal;line-height:125%;letter-spacing:0px;word-spacing:0px;fill:#000000;fill-opacity:1;stroke:none;font-family:Akkurat-Light;-inkscape-font-specification:Akkurat-Light Ultra-Light"
         id="path3274" />
      <path
         inkscape:connector-curvature="0"
         d="m 319.05121,878.81481 c 0.69739,0.6974 1.04608,1.69438 1.04609,2.99095 -1e-5,1.29657 -0.3487,2.29355 -1.04609,2.99095 -0.58936,0.58935 -1.3064,0.88402 -2.15113,0.88402 -0.84474,0 -1.56178,-0.29467 -2.15112,-0.88402 -0.6974,-0.6974 -1.0461,-1.69438 -1.0461,-2.99095 0,-1.29657 0.3487,-2.29355 1.0461,-2.99095 0.58934,-0.58934 1.30638,-0.88402 2.15112,-0.88402 0.84473,0 1.56177,0.29468 2.15113,0.88402 m -0.53042,5.49569 c 0.55006,-0.56971 0.82508,-1.40462 0.82509,-2.50474 -1e-5,-1.10012 -0.27503,-1.93503 -0.82509,-2.50474 -0.41255,-0.43218 -0.95278,-0.64827 -1.62071,-0.64828 -0.66793,10e-6 -1.20817,0.2161 -1.62071,0.64828 -0.55006,0.56971 -0.82509,1.40462 -0.82509,2.50474 0,1.10012 0.27503,1.93503 0.82509,2.50474 0.41254,0.43219 0.95278,0.64828 1.62071,0.64828 0.66793,0 1.20816,-0.21609 1.62071,-0.64828"
         style="font-size:20px;font-style:normal;font-variant:normal;font-weight:200;font-stretch:normal;line-height:125%;letter-spacing:0px;word-spacing:0px;fill:#000000;fill-opacity:1;stroke:none;font-family:Akkurat-Light;-inkscape-font-specification:Akkurat-Light Ultra-Light"
         id="path3276" />
      <path
         inkscape:connector-curvature="0"
         d="m 328.21375,885.48919 -0.73669,0 0,-4.81793 c -10e-6,-1.34567 -0.63356,-2.01851 -1.90065,-2.01852 -0.84474,10e-6 -1.46355,0.3045 -1.85645,0.91349 -0.39291,0.59918 -0.58935,1.34569 -0.58935,2.23953 l 0,3.68343 -0.73669,0 0,-7.36686 0.64829,0 0.0884,1.34077 c 0.20627,-0.46166 0.54023,-0.83 1.00189,-1.10503 0.47148,-0.28485 0.96752,-0.42728 1.48811,-0.42728 0.83491,0 1.47337,0.24065 1.91539,0.72195 0.45182,0.48131 0.67774,1.13941 0.67775,1.97432 l 0,4.86213"
         style="font-size:20px;font-style:normal;font-variant:normal;font-weight:200;font-stretch:normal;line-height:125%;letter-spacing:0px;word-spacing:0px;fill:#000000;fill-opacity:1;stroke:none;font-family:Akkurat-Light;-inkscape-font-specification:Akkurat-Light Ultra-Light"
         id="path3278" />
      <path
         inkscape:connector-curvature="0"
         d="m 105.04635,888.14017 -0.73669,0 0,-4.81793 c -10e-6,-1.36532 -0.58445,-2.04798 -1.75332,-2.04799 -0.51077,10e-6 -0.94787,0.16699 -1.3113,0.50095 -0.57953,0.55006 -0.8693,1.28184 -0.86929,2.19533 l 0,4.16964 -0.751419,0 0,-4.81793 c -6e-6,-1.36532 -0.589355,-2.04798 -1.768049,-2.04799 -0.520596,10e-6 -0.957696,0.16699 -1.311302,0.50095 -0.589352,0.55006 -0.884027,1.44391 -0.884025,2.68154 l 0,3.68343 -0.736686,0 0,-7.36686 0.648284,0 0.0884,1.2671 c 0.196448,-0.44201 0.491122,-0.79562 0.884025,-1.06083 0.392896,-0.2652 0.84473,-0.39781 1.355503,-0.39781 1.227806,0 2.003783,0.53042 2.327929,1.59124 0.20627,-0.4813 0.50585,-0.86438 0.89876,-1.14923 0.40272,-0.29467 0.89384,-0.44201 1.47338,-0.44201 0.82508,0 1.43898,0.24556 1.84171,0.73668 0.40271,0.48131 0.60407,1.13451 0.60409,1.95959 l 0,4.86213"
         style="font-size:20px;font-style:normal;font-variant:normal;font-weight:200;font-stretch:normal;text-align:center;line-height:125%;letter-spacing:0px;word-spacing:0px;text-anchor:middle;fill:#000000;fill-opacity:1;stroke:none;font-family:Akkurat-Light;-inkscape-font-specification:Akkurat-Light Ultra-Light"
         id="path3214" />
      <path
         inkscape:connector-curvature="0"
         d="m 113.91606,888.14017 c -0.17682,0.0295 -0.29469,0.0442 -0.35361,0.0442 -0.77599,0 -1.16398,-0.4813 -1.16397,-1.44391 -0.19646,0.50095 -0.54024,0.89384 -1.03136,1.1787 -0.49113,0.27503 -1.03137,0.41254 -1.62071,0.41254 -0.73669,0 -1.34569,-0.20627 -1.82699,-0.61881 -0.47148,-0.41255 -0.70722,-0.96261 -0.70722,-1.65018 0,-0.63847 0.22592,-1.14923 0.67776,-1.53231 0.45183,-0.3929 1.051,-0.6139 1.79751,-0.66302 l 2.71101,-0.19154 0,-0.72195 c -1e-5,-1.11976 -0.64829,-1.67964 -1.94485,-1.67965 -0.609,1e-5 -1.10504,0.13752 -1.48811,0.41255 -0.38308,0.27503 -0.59426,0.67776 -0.63355,1.20816 l -0.73669,0 c 0.0491,-0.72686 0.33397,-1.29165 0.85456,-1.69438 0.52059,-0.41253 1.18852,-0.61881 2.00379,-0.61881 0.55987,0 1.06573,0.10805 1.51757,0.32414 0.46165,0.2161 0.78579,0.55989 0.97243,1.03136 0.12768,0.33397 0.19153,0.80545 0.19154,1.41444 l 0,3.35929 c -1e-5,0.27503 0.0344,0.4764 0.10313,0.60409 0.0786,0.12768 0.23574,0.19153 0.47148,0.19153 0.0884,0 0.15716,-0.005 0.20628,-0.0147 l 0,0.64828 m -1.51758,-3.40349 0,-0.38308 -2.63734,0.16208 c -0.55006,0.0393 -0.98716,0.19645 -1.3113,0.47147 -0.32414,0.27504 -0.48622,0.63356 -0.48621,1.07557 -10e-6,0.51076 0.16698,0.90367 0.50094,1.1787 0.34379,0.27502 0.79071,0.41254 1.34077,0.41254 0.86438,0 1.51266,-0.28485 1.94486,-0.85456 0.43218,-0.57953 0.64827,-1.2671 0.64828,-2.06272"
         style="font-size:20px;font-style:normal;font-variant:normal;font-weight:200;font-stretch:normal;text-align:center;line-height:125%;letter-spacing:0px;word-spacing:0px;text-anchor:middle;fill:#000000;fill-opacity:1;stroke:none;font-family:Akkurat-Light;-inkscape-font-specification:Akkurat-Light Ultra-Light"
         id="path3216" />
      <path
         inkscape:connector-curvature="0"
         d="m 122.18974,889.2452 c -1e-5,0.52059 -0.18664,0.97734 -0.55988,1.37024 -0.56971,0.57952 -1.54214,0.86929 -2.91728,0.86929 -1.26711,0 -2.1806,-0.28485 -2.74048,-0.85455 -0.34379,-0.36344 -0.51568,-0.80545 -0.51568,-1.32604 0,-0.36344 0.0982,-0.70231 0.29468,-1.01663 0.19644,-0.31432 0.46656,-0.55006 0.81035,-0.70722 -0.25538,-0.0687 -0.47639,-0.221 -0.66302,-0.45674 -0.1768,-0.24556 -0.26521,-0.49604 -0.2652,-0.75142 -1e-5,-0.58935 0.29467,-1.05592 0.88402,-1.39971 -0.49113,-0.47148 -0.73669,-1.07556 -0.73669,-1.81225 0,-0.77597 0.2603,-1.3997 0.78089,-1.87118 0.52059,-0.47148 1.1787,-0.70722 1.97432,-0.70722 0.64828,0 1.2229,0.16698 1.72385,0.50094 0.0884,-0.30449 0.27011,-0.54514 0.54515,-0.72195 0.28484,-0.18662 0.59916,-0.27993 0.94296,-0.27994 0.0295,10e-6 0.0737,0.005 0.1326,0.0147 0.0687,0.01 0.11786,0.0147 0.14734,0.0147 l 0,0.63355 c -0.0295,10e-6 -0.0786,-0.005 -0.14734,-0.0147 -0.0589,-0.01 -0.10314,-0.0147 -0.1326,-0.0147 -0.26522,10e-6 -0.49113,0.0737 -0.67775,0.22101 -0.17682,0.13751 -0.28977,0.32905 -0.33888,0.57461 0.39289,0.45184 0.58934,1.0019 0.58935,1.65018 -10e-6,0.77598 -0.26522,1.3948 -0.79562,1.85645 -0.53042,0.46166 -1.19344,0.69249 -1.98906,0.69249 -0.55006,0 -1.04118,-0.11296 -1.47337,-0.33888 -0.49113,0.18663 -0.73669,0.49113 -0.73669,0.91349 0,0.32415 0.17189,0.55497 0.51568,0.69249 0.20627,0.0786 0.53533,0.11787 0.98716,0.11787 l 1.60598,0 c 0.97242,0 1.69437,0.24065 2.16586,0.72195 0.39289,0.3929 0.58934,0.86929 0.58935,1.42917 m -2.19533,-4.70006 c 0.3929,-0.34378 0.58935,-0.80544 0.58935,-1.38497 0,-0.57952 -0.19645,-1.04118 -0.58935,-1.38497 -0.38308,-0.3536 -0.86929,-0.53041 -1.45864,-0.53041 -0.58935,0 -1.07556,0.17681 -1.45864,0.53041 -0.38308,0.34379 -0.57462,0.80545 -0.57461,1.38497 -1e-5,0.57953 0.19153,1.04119 0.57461,1.38497 0.38308,0.33397 0.86929,0.50095 1.45864,0.50095 0.58935,0 1.07556,-0.16698 1.45864,-0.50095 m 1.45864,4.70006 c 0,-0.35361 -0.11787,-0.65811 -0.35361,-0.91349 -0.34379,-0.36343 -0.93805,-0.54515 -1.78278,-0.54515 l -1.94485,0 c -0.34379,0.0786 -0.63356,0.25048 -0.86929,0.51569 -0.23574,0.2652 -0.35361,0.59916 -0.35361,1.00189 0,0.37325 0.1326,0.68266 0.39781,0.92822 0.41254,0.3929 1.1394,0.58935 2.18059,0.58935 1.12958,0 1.91047,-0.2161 2.34267,-0.64828 0.25537,-0.25539 0.38307,-0.5648 0.38307,-0.92823"
         style="font-size:20px;font-style:normal;font-variant:normal;font-weight:200;font-stretch:normal;text-align:center;line-height:125%;letter-spacing:0px;word-spacing:0px;text-anchor:middle;fill:#000000;fill-opacity:1;stroke:none;font-family:Akkurat-Light;-inkscape-font-specification:Akkurat-Light Ultra-Light"
         id="path3218" />
      <path
         inkscape:connector-curvature="0"
         d="m 129.75114,888.14017 -0.73669,0 0,-4.81793 c 0,-1.34567 -0.63355,-2.01851 -1.90065,-2.01852 -0.84474,10e-6 -1.46355,0.3045 -1.85645,0.91349 -0.3929,0.59918 -0.58935,1.34569 -0.58935,2.23953 l 0,3.68343 -0.73669,0 0,-7.36686 0.64829,0 0.0884,1.34077 c 0.20627,-0.46166 0.54023,-0.83 1.00189,-1.10503 0.47148,-0.28485 0.96751,-0.42728 1.48811,-0.42728 0.83491,0 1.47337,0.24065 1.91539,0.72195 0.45182,0.48131 0.67774,1.13941 0.67775,1.97432 l 0,4.86213"
         style="font-size:20px;font-style:normal;font-variant:normal;font-weight:200;font-stretch:normal;text-align:center;line-height:125%;letter-spacing:0px;word-spacing:0px;text-anchor:middle;fill:#000000;fill-opacity:1;stroke:none;font-family:Akkurat-Light;-inkscape-font-specification:Akkurat-Light Ultra-Light"
         id="path3220" />
      <path
         inkscape:connector-curvature="0"
         d="m 138.28174,884.14733 c -1e-5,0.0589 -0.005,0.14243 -0.0147,0.25048 -1e-5,0.0982 -1e-5,0.1768 0,0.23573 l -5.62829,0 c 0.0196,0.88403 0.27503,1.62072 0.76616,2.21007 0.442,0.52059 1.03626,0.78088 1.78278,0.78088 0.6581,0 1.19342,-0.21609 1.60597,-0.64828 0.29467,-0.31432 0.4813,-0.66302 0.55989,-1.0461 l 0.76615,0 c -0.0982,0.58935 -0.37326,1.10503 -0.82509,1.54705 -0.56971,0.5697 -1.27202,0.85455 -2.10692,0.85455 -0.95279,0 -1.73367,-0.3487 -2.34267,-1.04609 -0.62864,-0.73669 -0.94296,-1.66983 -0.94296,-2.79941 0,-1.0903 0.24065,-1.9645 0.72196,-2.62261 0.62863,-0.85455 1.46355,-1.28183 2.50473,-1.28183 0.95278,0 1.71402,0.35361 2.28373,1.06083 0.57952,0.6974 0.86928,1.53231 0.86929,2.50473 m -0.75142,-0.19154 c -0.0196,-0.73668 -0.24557,-1.36532 -0.67775,-1.88592 -0.4322,-0.5304 -1.00681,-0.79561 -1.72385,-0.79562 -0.73669,10e-6 -1.33586,0.2603 -1.79751,0.78089 -0.45184,0.51078 -0.67776,1.14433 -0.67776,1.90065 l 4.87687,0"
         style="font-size:20px;font-style:normal;font-variant:normal;font-weight:200;font-stretch:normal;text-align:center;line-height:125%;letter-spacing:0px;word-spacing:0px;text-anchor:middle;fill:#000000;fill-opacity:1;stroke:none;font-family:Akkurat-Light;-inkscape-font-specification:Akkurat-Light Ultra-Light"
         id="path3222" />
      <path
         inkscape:connector-curvature="0"
         d="m 143.96989,888.06651 c -0.55007,0.11787 -0.9577,0.1768 -1.2229,0.1768 -1.26711,0 -1.90066,-0.71704 -1.90066,-2.15113 l 0,-4.64112 -1.47337,0 0,-0.67775 1.47337,0 0,-2.03326 0.73669,-0.1768 0,2.21006 2.28373,0 0,0.67775 -2.28373,0 0,4.61166 c 0,0.4813 0.0884,0.84964 0.26521,1.10503 0.1768,0.25538 0.49603,0.38307 0.95769,0.38307 0.29467,0 0.68266,-0.0442 1.16397,-0.1326 l 0,0.64829"
         style="font-size:20px;font-style:normal;font-variant:normal;font-weight:200;font-stretch:normal;text-align:center;line-height:125%;letter-spacing:0px;word-spacing:0px;text-anchor:middle;fill:#000000;fill-opacity:1;stroke:none;font-family:Akkurat-Light;-inkscape-font-specification:Akkurat-Light Ultra-Light"
         id="path3224" />
      <path
         inkscape:connector-curvature="0"
         d="m 146.88924,878.72532 -1.03136,0 0,-1.03136 1.03136,0 0,1.03136 m -0.11787,9.41485 -0.78089,0 0,-7.36686 0.78089,0 0,7.36686"
         style="font-size:20px;font-style:normal;font-variant:normal;font-weight:200;font-stretch:normal;text-align:center;line-height:125%;letter-spacing:0px;word-spacing:0px;text-anchor:middle;fill:#000000;fill-opacity:1;stroke:none;font-family:Akkurat-Light;-inkscape-font-specification:Akkurat-Light Ultra-Light"
         id="path3226" />
      <path
         inkscape:connector-curvature="0"
         d="m 155.18087,885.81224 c -0.0982,0.72687 -0.41255,1.33095 -0.94295,1.81225 -0.53042,0.47148 -1.1738,0.70722 -1.93012,0.70722 -0.86438,0 -1.58633,-0.28977 -2.16586,-0.86929 -0.68758,-0.68757 -1.03136,-1.68946 -1.03136,-3.00568 0,-1.31621 0.34378,-2.3181 1.03136,-3.00568 0.57953,-0.57952 1.30148,-0.86929 2.16586,-0.86929 0.76615,0 1.40952,0.23083 1.93012,0.69248 0.52058,0.45184 0.82508,1.05101 0.91349,1.79752 l -0.76616,0 c -0.0786,-0.52059 -0.30941,-0.94295 -0.69248,-1.2671 -0.37326,-0.33396 -0.83492,-0.50094 -1.38497,-0.50095 -0.68758,10e-6 -1.23272,0.21119 -1.63545,0.63355 -0.54023,0.55989 -0.81035,1.39971 -0.81035,2.51947 0,1.12958 0.27012,1.97432 0.81035,2.5342 0.3929,0.41255 0.93805,0.61882 1.63545,0.61882 0.55005,0 1.01171,-0.16699 1.38497,-0.50095 0.38307,-0.34379 0.61881,-0.77597 0.70722,-1.29657 l 0.78088,0"
         style="font-size:20px;font-style:normal;font-variant:normal;font-weight:200;font-stretch:normal;text-align:center;line-height:125%;letter-spacing:0px;word-spacing:0px;text-anchor:middle;fill:#000000;fill-opacity:1;stroke:none;font-family:Akkurat-Light;-inkscape-font-specification:Akkurat-Light Ultra-Light"
         id="path3228" />
      <path
         inkscape:connector-curvature="0"
         d="m 114.95294,896.58261 c -0.3929,-0.0589 -0.74651,-0.0884 -1.06083,-0.0884 -0.93314,1e-5 -1.3997,0.4764 -1.3997,1.42918 l 0,1.2671 2.31319,0 0,0.67775 -2.31319,0 0,6.68912 -0.73669,0 0,-6.68912 -1.47337,0 0,-0.67775 1.47337,0 0,-1.29657 c 0,-0.58934 0.1768,-1.08047 0.53042,-1.47338 0.36343,-0.39289 0.87911,-0.58934 1.54704,-0.58935 0.39289,10e-6 0.76615,0.0295 1.11976,0.0884 l 0,0.66302"
         style="font-size:20px;font-style:normal;font-variant:normal;font-weight:200;font-stretch:normal;text-align:center;line-height:125%;letter-spacing:0px;word-spacing:0px;text-anchor:middle;fill:#000000;fill-opacity:1;stroke:none;font-family:Akkurat-Light;-inkscape-font-specification:Akkurat-Light Ultra-Light"
         id="path3230" />
      <path
         inkscape:connector-curvature="0"
         d="m 117.42176,897.14249 -1.03136,0 0,-1.03136 1.03136,0 0,1.03136 m -0.11787,9.41486 -0.78088,0 0,-7.36687 0.78088,0 0,7.36687"
         style="font-size:20px;font-style:normal;font-variant:normal;font-weight:200;font-stretch:normal;text-align:center;line-height:125%;letter-spacing:0px;word-spacing:0px;text-anchor:middle;fill:#000000;fill-opacity:1;stroke:none;font-family:Akkurat-Light;-inkscape-font-specification:Akkurat-Light Ultra-Light"
         id="path3232" />
      <path
         inkscape:connector-curvature="0"
         d="m 126.02281,902.5645 c 0,0.0589 -0.005,0.14243 -0.0147,0.25048 -1e-5,0.0982 -1e-5,0.1768 0,0.23574 l -5.62829,0 c 0.0196,0.88402 0.27503,1.62071 0.76616,2.21006 0.44201,0.52059 1.03627,0.78088 1.78278,0.78088 0.6581,0 1.19343,-0.21609 1.60598,-0.64828 0.29466,-0.31432 0.48129,-0.66302 0.55988,-1.0461 l 0.76615,0 c -0.0982,0.58935 -0.37326,1.10503 -0.82509,1.54705 -0.56971,0.5697 -1.27202,0.85455 -2.10692,0.85455 -0.95279,0 -1.73367,-0.3487 -2.34267,-1.04609 -0.62864,-0.73669 -0.94296,-1.66983 -0.94296,-2.79941 0,-1.0903 0.24065,-1.96449 0.72196,-2.62261 0.62863,-0.85455 1.46355,-1.28182 2.50473,-1.28183 0.95278,1e-5 1.71402,0.35362 2.28373,1.06083 0.57952,0.6974 0.86929,1.53231 0.86929,2.50473 m -0.75142,-0.19154 c -0.0196,-0.73668 -0.24557,-1.36532 -0.67775,-1.88591 -0.43219,-0.53041 -1.00681,-0.79562 -1.72385,-0.79563 -0.73669,10e-6 -1.33586,0.2603 -1.79751,0.78089 -0.45184,0.51078 -0.67776,1.14433 -0.67775,1.90065 l 4.87686,0"
         style="font-size:20px;font-style:normal;font-variant:normal;font-weight:200;font-stretch:normal;text-align:center;line-height:125%;letter-spacing:0px;word-spacing:0px;text-anchor:middle;fill:#000000;fill-opacity:1;stroke:none;font-family:Akkurat-Light;-inkscape-font-specification:Akkurat-Light Ultra-Light"
         id="path3234" />
      <path
         inkscape:connector-curvature="0"
         d="m 130.31125,906.55735 c -0.2161,0.0589 -0.4371,0.0884 -0.66302,0.0884 -0.98225,0 -1.47337,-0.5206 -1.47337,-1.56178 l 0,-9.16438 0.73669,0 0,9.13491 c -1e-5,0.58935 0.25538,0.88403 0.76615,0.88403 0.28485,0 0.49603,-0.01 0.63355,-0.0295 l 0,0.64829"
         style="font-size:20px;font-style:normal;font-variant:normal;font-weight:200;font-stretch:normal;text-align:center;line-height:125%;letter-spacing:0px;word-spacing:0px;text-anchor:middle;fill:#000000;fill-opacity:1;stroke:none;font-family:Akkurat-Light;-inkscape-font-specification:Akkurat-Light Ultra-Light"
         id="path3236" />
      <path
         inkscape:connector-curvature="0"
         d="m 138.02137,906.55735 -0.64829,0 -0.0884,-1.29657 c -0.19645,0.44201 -0.52551,0.80053 -0.98716,1.07556 -0.46166,0.27503 -0.94787,0.41254 -1.45864,0.41254 -0.7858,0 -1.439,-0.23083 -1.95959,-0.69248 -0.80544,-0.70722 -1.20816,-1.76314 -1.20816,-3.16776 0,-1.3555 0.38307,-2.39668 1.14923,-3.12355 0.53041,-0.51076 1.19834,-0.76614 2.00379,-0.76615 0.52059,1e-5 1.01171,0.13261 1.47337,0.39781 0.46165,0.26521 0.79071,0.609 0.98716,1.03136 l 0,-4.50852 0.73669,0 0,10.63776 m -0.72195,-3.68344 c -1e-5,-1.1394 -0.30942,-1.99887 -0.92823,-2.5784 -0.40273,-0.38307 -0.91841,-0.57461 -1.54704,-0.57462 -0.63847,10e-6 -1.16397,0.2161 -1.57651,0.64829 -0.55006,0.58935 -0.82509,1.42426 -0.82509,2.50473 0,1.1787 0.32414,2.05781 0.97243,2.63734 0.39289,0.34379 0.87911,0.51568 1.45864,0.51568 0.58934,0 1.09029,-0.19645 1.50284,-0.58935 0.62863,-0.61882 0.94295,-1.47337 0.94296,-2.56367"
         style="font-size:20px;font-style:normal;font-variant:normal;font-weight:200;font-stretch:normal;text-align:center;line-height:125%;letter-spacing:0px;word-spacing:0px;text-anchor:middle;fill:#000000;fill-opacity:1;stroke:none;font-family:Akkurat-Light;-inkscape-font-specification:Akkurat-Light Ultra-Light"
         id="path3238" />
      <path
         inkscape:connector-curvature="0"
         id="path3126"
         d="m 134.19856,1006.2986 -4.84039,10.1477 4.84039,-2.4046 4.84039,2.4046 -4.84039,-10.1477 z"
         style="fill:#000000;stroke:none" />
      <path
         d="m 116.86445,1056.475 c 0,0.5206 -0.16697,0.9724 -0.50089,1.3554 -0.53037,0.5893 -1.32591,0.8839 -2.38662,0.8839 -1.0509,0 -1.85626,-0.3142 -2.41608,-0.9428 -0.38304,-0.442 -0.58929,-0.938 -0.61876,-1.488 l 0.75135,0 c 0.0393,0.4322 0.22098,0.8103 0.54509,1.1344 0.40268,0.3929 0.98214,0.5893 1.7384,0.5893 0.79553,0 1.375,-0.1817 1.7384,-0.5451 0.26517,-0.2652 0.39776,-0.5795 0.39777,-0.9429 -1e-5,-0.3437 -0.11786,-0.6384 -0.35357,-0.8839 -0.23572,-0.2455 -0.56965,-0.3978 -1.00179,-0.4567 l -1.42903,-0.1915 c -0.76608,-0.088 -1.32099,-0.3339 -1.66474,-0.7366 -0.275,-0.3241 -0.4125,-0.7121 -0.4125,-1.1639 0,-0.5598 0.21116,-1.0361 0.63349,-1.429 0.50089,-0.4616 1.17366,-0.6924 2.01831,-0.6924 0.99196,0 1.73348,0.2897 2.22456,0.8692 0.35357,0.4223 0.54018,0.8741 0.55983,1.3554 l -0.73662,0 c -0.0393,-0.3536 -0.16205,-0.6482 -0.3683,-0.884 -0.3634,-0.4321 -0.92322,-0.6482 -1.67947,-0.6482 -0.56965,0 -1.01162,0.113 -1.3259,0.3389 -0.38304,0.275 -0.57456,0.6138 -0.57456,1.0165 0,0.3339 0.10313,0.6089 0.30938,0.825 0.21607,0.2062 0.58929,0.3437 1.11965,0.4125 l 1.39956,0.1915 c 0.65803,0.088 1.15893,0.329 1.50268,0.7219 0.35357,0.383 0.53036,0.8201 0.53036,1.3111"
         style="font-size:20px;font-style:normal;font-variant:normal;font-weight:200;font-stretch:normal;text-align:center;line-height:125%;letter-spacing:0px;word-spacing:0px;text-anchor:middle;fill:#000000;fill-opacity:1;stroke:none;font-family:Akkurat-Light;-inkscape-font-specification:Akkurat-Light Ultra-Light"
         id="path3969"
         inkscape:connector-curvature="0" />
      <path
         d="m 125.24294,1058.5228 c -0.1768,0.03 -0.29466,0.044 -0.35358,0.044 -0.7759,0 -1.16385,-0.4812 -1.16384,-1.4437 -0.19644,0.5009 -0.54019,0.8937 -1.03126,1.1785 -0.49108,0.275 -1.03126,0.4125 -1.62054,0.4125 -0.73661,0 -1.34554,-0.2062 -1.82679,-0.6187 -0.47144,-0.4125 -0.70715,-0.9625 -0.70715,-1.65 0,-0.6384 0.22589,-1.1491 0.67768,-1.5322 0.45179,-0.3928 1.0509,-0.6138 1.79733,-0.6629 l 2.71073,-0.1915 0,-0.7219 c -1e-5,-1.1197 -0.64822,-1.6795 -1.94465,-1.6795 -0.60894,0 -1.10492,0.1375 -1.48796,0.4125 -0.38304,0.275 -0.5942,0.6777 -0.63348,1.2081 l -0.73661,0 c 0.0491,-0.7268 0.33393,-1.2916 0.85447,-1.6942 0.52053,-0.4125 1.18839,-0.6188 2.00358,-0.6188 0.55982,0 1.06562,0.108 1.51741,0.3241 0.46161,0.2161 0.78572,0.5598 0.97233,1.0313 0.12767,0.3339 0.19151,0.8053 0.19152,1.4143 l 0,3.3589 c -1e-5,0.275 0.0344,0.4763 0.10312,0.604 0.0786,0.1277 0.23571,0.1915 0.47143,0.1915 0.0884,0 0.15714,0 0.20626,-0.015 l 0,0.6482 m -1.51742,-3.4031 0,-0.3831 -2.63707,0.1621 c -0.55,0.039 -0.98706,0.1964 -1.31116,0.4714 -0.32411,0.275 -0.48617,0.6335 -0.48617,1.0755 0,0.5107 0.16697,0.9036 0.5009,1.1786 0.34375,0.275 0.79062,0.4125 1.34063,0.4125 0.86428,0 1.5125,-0.2849 1.94465,-0.8545 0.43214,-0.5795 0.64821,-1.267 0.64822,-2.0625"
         style="font-size:20px;font-style:normal;font-variant:normal;font-weight:200;font-stretch:normal;text-align:center;line-height:125%;letter-spacing:0px;word-spacing:0px;text-anchor:middle;fill:#000000;fill-opacity:1;stroke:none;font-family:Akkurat-Light;-inkscape-font-specification:Akkurat-Light Ultra-Light"
         id="path3971"
         inkscape:connector-curvature="0" />
      <path
         d="m 137.52292,1058.5228 -0.73661,0 0,-4.8174 c -10e-6,-1.3652 -0.58439,-2.0478 -1.75313,-2.0478 -0.51073,0 -0.94778,0.167 -1.31117,0.5009 -0.57947,0.55 -0.86921,1.2817 -0.8692,2.1951 l 0,4.1692 -0.75134,0 0,-4.8174 c -1e-5,-1.3652 -0.5893,-2.0478 -1.76787,-2.0478 -0.52054,0 -0.95759,0.167 -1.31116,0.5009 -0.58929,0.55 -0.88394,1.4438 -0.88393,2.6813 l 0,3.683 -0.73662,0 0,-7.3661 0.64822,0 0.0884,1.267 c 0.19642,-0.442 0.49107,-0.7955 0.88393,-1.0607 0.39285,-0.2652 0.84464,-0.3978 1.35536,-0.3978 1.22768,0 2.00357,0.5304 2.32769,1.5911 0.20624,-0.4813 0.5058,-0.8643 0.89866,-1.1491 0.40268,-0.2947 0.89375,-0.442 1.47323,-0.442 0.82499,0 1.43883,0.2455 1.84152,0.7366 0.40267,0.4813 0.60401,1.1344 0.60402,1.9594 l 0,4.8616"
         style="font-size:20px;font-style:normal;font-variant:normal;font-weight:200;font-stretch:normal;text-align:center;line-height:125%;letter-spacing:0px;word-spacing:0px;text-anchor:middle;fill:#000000;fill-opacity:1;stroke:none;font-family:Akkurat-Light;-inkscape-font-specification:Akkurat-Light Ultra-Light"
         id="path3973"
         inkscape:connector-curvature="0" />
      <path
         d="m 146.64216,1054.825 c -1e-5,1.3554 -0.38305,2.3965 -1.14911,3.1233 -0.53037,0.5107 -1.19823,0.766 -2.00358,0.766 -0.52055,0 -1.01162,-0.1325 -1.47322,-0.3977 -0.46162,-0.2652 -0.79064,-0.609 -0.98706,-1.0313 l 0,4.184 -0.73661,0 0,-10.3126 0.64821,0 0.0884,1.2965 c 0.19642,-0.442 0.52544,-0.8005 0.98706,-1.0755 0.4616,-0.275 0.94776,-0.4125 1.45848,-0.4125 0.78572,0 1.43884,0.2308 1.95939,0.6924 0.80535,0.7072 1.20803,1.763 1.20804,3.1674 m -0.75134,0.015 c -1e-5,-1.1786 -0.32412,-2.0576 -0.97233,-2.6371 -0.39286,-0.3437 -0.87903,-0.5156 -1.45849,-0.5156 -0.58929,0 -1.09019,0.1964 -1.50268,0.5893 -0.62858,0.6187 -0.94287,1.4732 -0.94286,2.5634 -1e-5,1.1393 0.30937,1.9986 0.92812,2.5781 0.40268,0.383 0.91831,0.5746 1.54689,0.5746 0.63839,0 1.16384,-0.2161 1.57634,-0.6483 0.55,-0.5892 0.825,-1.4241 0.82501,-2.5044"
         style="font-size:20px;font-style:normal;font-variant:normal;font-weight:200;font-stretch:normal;text-align:center;line-height:125%;letter-spacing:0px;word-spacing:0px;text-anchor:middle;fill:#000000;fill-opacity:1;stroke:none;font-family:Akkurat-Light;-inkscape-font-specification:Akkurat-Light Ultra-Light"
         id="path3975"
         inkscape:connector-curvature="0" />
      <path
         d="m 150.98793,1058.5228 c -0.21608,0.059 -0.43706,0.088 -0.66295,0.088 -0.98214,0 -1.47322,-0.5205 -1.47322,-1.5616 l 0,-9.1634 0.73661,0 0,9.1339 c 0,0.5893 0.25535,0.884 0.76607,0.884 0.28482,0 0.49599,-0.01 0.63349,-0.029 l 0,0.6482"
         style="font-size:20px;font-style:normal;font-variant:normal;font-weight:200;font-stretch:normal;text-align:center;line-height:125%;letter-spacing:0px;word-spacing:0px;text-anchor:middle;fill:#000000;fill-opacity:1;stroke:none;font-family:Akkurat-Light;-inkscape-font-specification:Akkurat-Light Ultra-Light"
         id="path3977"
         inkscape:connector-curvature="0" />
      <path
         d="m 158.75618,1054.5304 c -1e-5,0.059 -0.005,0.1424 -0.0147,0.2504 -1e-5,0.098 -1e-5,0.1768 0,0.2358 l -5.62771,0 c 0.0197,0.8839 0.275,1.6205 0.76608,2.2098 0.44196,0.5205 1.03616,0.7808 1.78259,0.7808 0.65804,0 1.19331,-0.2161 1.60582,-0.6482 0.29463,-0.3143 0.48124,-0.663 0.55982,-1.046 l 0.76607,0 c -0.0982,0.5893 -0.37322,1.1049 -0.825,1.5469 -0.56965,0.5696 -1.27188,0.8544 -2.10671,0.8544 -0.95268,0 -1.73349,-0.3486 -2.34242,-1.0459 -0.62858,-0.7367 -0.94286,-1.6697 -0.94286,-2.7992 0,-1.0901 0.24062,-1.9643 0.72188,-2.6223 0.62857,-0.8545 1.4634,-1.2817 2.50448,-1.2817 0.95268,0 1.71384,0.3536 2.28349,1.0607 0.57946,0.6973 0.86919,1.5322 0.8692,2.5045 m -0.75134,-0.1915 c -0.0197,-0.7366 -0.24555,-1.3652 -0.67769,-1.8857 -0.43215,-0.5304 -1.0067,-0.7956 -1.72366,-0.7956 -0.73662,0 -1.33573,0.2603 -1.79733,0.7808 -0.4518,0.5107 -0.67768,1.1442 -0.67768,1.9005 l 4.87636,0"
         style="font-size:20px;font-style:normal;font-variant:normal;font-weight:200;font-stretch:normal;text-align:center;line-height:125%;letter-spacing:0px;word-spacing:0px;text-anchor:middle;fill:#000000;fill-opacity:1;stroke:none;font-family:Akkurat-Light;-inkscape-font-specification:Akkurat-Light Ultra-Light"
         id="path3979"
         inkscape:connector-curvature="0" />
      <path
         d="m 108.24692,1067.5242 -1.03126,0 0,-1.0313 1.03126,0 0,1.0313 m -0.11786,9.4139 -0.78081,0 0,-7.3661 0.78081,0 0,7.3661"
         style="font-size:20px;font-style:normal;font-variant:normal;font-weight:200;font-stretch:normal;text-align:center;line-height:125%;letter-spacing:0px;word-spacing:0px;text-anchor:middle;fill:#000000;fill-opacity:1;stroke:none;font-family:Akkurat-Light;-inkscape-font-specification:Akkurat-Light Ultra-Light"
         id="path3981"
         inkscape:connector-curvature="0" />
      <path
         d="m 116.92073,1076.9381 -0.73661,0 0,-4.8174 c 0,-1.3456 -0.63349,-2.0184 -1.90045,-2.0184 -0.84465,0 -1.4634,0.3045 -1.85626,0.9134 -0.39286,0.5992 -0.58929,1.3456 -0.58929,2.2393 l 0,3.6831 -0.73661,0 0,-7.3661 0.64822,0 0.0884,1.3406 c 0.20625,-0.4616 0.54018,-0.8299 1.00179,-1.1049 0.47143,-0.2848 0.96741,-0.4272 1.48795,-0.4272 0.83482,0 1.47322,0.2406 1.91519,0.7218 0.45178,0.4813 0.67768,1.1393 0.67768,1.9742 l 0,4.8616"
         style="font-size:20px;font-style:normal;font-variant:normal;font-weight:200;font-stretch:normal;text-align:center;line-height:125%;letter-spacing:0px;word-spacing:0px;text-anchor:middle;fill:#000000;fill-opacity:1;stroke:none;font-family:Akkurat-Light;-inkscape-font-specification:Akkurat-Light Ultra-Light"
         id="path3983"
         inkscape:connector-curvature="0" />
      <path
         d="m 121.01606,1067.5242 -1.01652,0 0,-1.0313 1.01652,0 0,1.0313 m -0.11786,10.3567 c 0,1.4045 -0.63349,2.1067 -1.90046,2.1068 -0.26518,-10e-5 -0.60402,-0.034 -1.01652,-0.1032 l 0,-0.6777 c 0.39286,0.059 0.71206,0.088 0.9576,0.088 0.81518,0 1.22277,-0.4812 1.22277,-1.4437 l 0,-8.2795 0.73661,0 0,8.3089"
         style="font-size:20px;font-style:normal;font-variant:normal;font-weight:200;font-stretch:normal;text-align:center;line-height:125%;letter-spacing:0px;word-spacing:0px;text-anchor:middle;fill:#000000;fill-opacity:1;stroke:none;font-family:Akkurat-Light;-inkscape-font-specification:Akkurat-Light Ultra-Light"
         id="path3985"
         inkscape:connector-curvature="0" />
      <path
         d="m 129.62266,1072.9457 c -1e-5,0.059 -0.005,0.1424 -0.0147,0.2504 -1e-5,0.098 -1e-5,0.1768 0,0.2357 l -5.62771,0 c 0.0196,0.884 0.275,1.6206 0.76608,2.2099 0.44196,0.5205 1.03616,0.7808 1.78259,0.7808 0.65804,0 1.19331,-0.2161 1.60582,-0.6483 0.29463,-0.3142 0.48124,-0.6629 0.55982,-1.0459 l 0.76608,0 c -0.0982,0.5892 -0.37323,1.1049 -0.82501,1.5468 -0.56965,0.5697 -1.27188,0.8545 -2.10671,0.8545 -0.95268,0 -1.73349,-0.3487 -2.34242,-1.046 -0.62857,-0.7366 -0.94286,-1.6696 -0.94286,-2.7991 0,-1.0902 0.24063,-1.9643 0.72188,-2.6223 0.62857,-0.8545 1.4634,-1.2817 2.50448,-1.2817 0.95267,0 1.71384,0.3535 2.28349,1.0607 0.57946,0.6973 0.86919,1.5321 0.8692,2.5045 m -0.75134,-0.1916 c -0.0197,-0.7366 -0.24555,-1.3651 -0.67768,-1.8857 -0.43215,-0.5303 -1.00671,-0.7955 -1.72367,-0.7955 -0.73662,0 -1.33573,0.2602 -1.79733,0.7808 -0.45179,0.5107 -0.67769,1.1442 -0.67768,1.9004 l 4.87636,0"
         style="font-size:20px;font-style:normal;font-variant:normal;font-weight:200;font-stretch:normal;text-align:center;line-height:125%;letter-spacing:0px;word-spacing:0px;text-anchor:middle;fill:#000000;fill-opacity:1;stroke:none;font-family:Akkurat-Light;-inkscape-font-specification:Akkurat-Light Ultra-Light"
         id="path3987"
         inkscape:connector-curvature="0" />
      <path
         d="m 137.25486,1074.6104 c -0.0982,0.7268 -0.4125,1.3308 -0.94286,1.8121 -0.53036,0.4714 -1.17367,0.7071 -1.92992,0.7071 -0.86429,0 -1.58617,-0.2897 -2.16563,-0.8692 -0.6875,-0.6875 -1.03126,-1.6893 -1.03125,-3.0054 -1e-5,-1.316 0.34375,-2.3178 1.03125,-3.0053 0.57946,-0.5795 1.30134,-0.8692 2.16563,-0.8692 0.76607,0 1.40938,0.2308 1.92992,0.6924 0.52053,0.4518 0.825,1.0509 0.9134,1.7973 l -0.76607,0 c -0.0786,-0.5205 -0.30939,-0.9429 -0.69242,-1.267 -0.37322,-0.3339 -0.83483,-0.5009 -1.38483,-0.5009 -0.6875,0 -1.23259,0.2112 -1.63527,0.6335 -0.54018,0.5599 -0.81027,1.3996 -0.81027,2.5192 0,1.1295 0.27009,1.9741 0.81027,2.534 0.39285,0.4125 0.93795,0.6187 1.63527,0.6187 0.55,0 1.01161,-0.1669 1.38483,-0.5009 0.38303,-0.3437 0.61875,-0.7759 0.70715,-1.2964 l 0.7808,0"
         style="font-size:20px;font-style:normal;font-variant:normal;font-weight:200;font-stretch:normal;text-align:center;line-height:125%;letter-spacing:0px;word-spacing:0px;text-anchor:middle;fill:#000000;fill-opacity:1;stroke:none;font-family:Akkurat-Light;-inkscape-font-specification:Akkurat-Light Ultra-Light"
         id="path3989"
         inkscape:connector-curvature="0" />
      <path
         d="m 142.84896,1076.8644 c -0.55001,0.1179 -0.9576,0.1768 -1.22277,0.1768 -1.26698,0 -1.90046,-0.717 -1.90046,-2.1509 l 0,-4.6406 -1.47322,0 0,-0.6777 1.47322,0 0,-2.0331 0.73661,-0.1768 0,2.2099 2.28349,0 0,0.6777 -2.28349,0 0,4.6111 c 0,0.4813 0.0884,0.8496 0.26518,1.105 0.17679,0.2553 0.49598,0.383 0.9576,0.383 0.29464,0 0.68258,-0.044 1.16384,-0.1326 l 0,0.6482"
         style="font-size:20px;font-style:normal;font-variant:normal;font-weight:200;font-stretch:normal;text-align:center;line-height:125%;letter-spacing:0px;word-spacing:0px;text-anchor:middle;fill:#000000;fill-opacity:1;stroke:none;font-family:Akkurat-Light;-inkscape-font-specification:Akkurat-Light Ultra-Light"
         id="path3991"
         inkscape:connector-curvature="0" />
      <path
         d="m 145.76801,1067.5242 -1.03126,0 0,-1.0313 1.03126,0 0,1.0313 m -0.11786,9.4139 -0.78081,0 0,-7.3661 0.78081,0 0,7.3661"
         style="font-size:20px;font-style:normal;font-variant:normal;font-weight:200;font-stretch:normal;text-align:center;line-height:125%;letter-spacing:0px;word-spacing:0px;text-anchor:middle;fill:#000000;fill-opacity:1;stroke:none;font-family:Akkurat-Light;-inkscape-font-specification:Akkurat-Light Ultra-Light"
         id="path3993"
         inkscape:connector-curvature="0" />
      <path
         d="m 153.33691,1070.2644 c 0.69732,0.6973 1.04598,1.6942 1.04599,2.9906 -1e-5,1.2965 -0.34867,2.2933 -1.04599,2.9907 -0.58929,0.5893 -1.30626,0.8839 -2.1509,0.8839 -0.84465,0 -1.56162,-0.2946 -2.1509,-0.8839 -0.69733,-0.6974 -1.04599,-1.6942 -1.04599,-2.9907 0,-1.2964 0.34866,-2.2933 1.04599,-2.9906 0.58928,-0.5893 1.30625,-0.8839 2.1509,-0.8839 0.84464,0 1.56161,0.2946 2.1509,0.8839 m -0.53036,5.4951 c 0.55,-0.5696 0.825,-1.4045 0.82501,-2.5045 -1e-5,-1.1 -0.27501,-1.9348 -0.82501,-2.5044 -0.41251,-0.4322 -0.95268,-0.6483 -1.62054,-0.6483 -0.66786,0 -1.20805,0.2161 -1.62054,0.6483 -0.55001,0.5696 -0.82501,1.4044 -0.82501,2.5044 0,1.1 0.275,1.9349 0.82501,2.5045 0.41249,0.4322 0.95268,0.6482 1.62054,0.6482 0.66786,0 1.20803,-0.216 1.62054,-0.6482"
         style="font-size:20px;font-style:normal;font-variant:normal;font-weight:200;font-stretch:normal;text-align:center;line-height:125%;letter-spacing:0px;word-spacing:0px;text-anchor:middle;fill:#000000;fill-opacity:1;stroke:none;font-family:Akkurat-Light;-inkscape-font-specification:Akkurat-Light Ultra-Light"
         id="path3995"
         inkscape:connector-curvature="0" />
      <path
         d="m 162.49851,1076.9381 -0.73661,0 0,-4.8174 c -1e-5,-1.3456 -0.6335,-2.0184 -1.90046,-2.0184 -0.84465,0 -1.4634,0.3045 -1.85626,0.9134 -0.39286,0.5992 -0.58929,1.3456 -0.58929,2.2393 l 0,3.6831 -0.73661,0 0,-7.3661 0.64822,0 0.0884,1.3406 c 0.20625,-0.4616 0.54018,-0.8299 1.00179,-1.1049 0.47143,-0.2848 0.96742,-0.4272 1.48796,-0.4272 0.83481,0 1.47321,0.2406 1.91518,0.7218 0.45178,0.4813 0.67768,1.1393 0.67769,1.9742 l 0,4.8616"
         style="font-size:20px;font-style:normal;font-variant:normal;font-weight:200;font-stretch:normal;text-align:center;line-height:125%;letter-spacing:0px;word-spacing:0px;text-anchor:middle;fill:#000000;fill-opacity:1;stroke:none;font-family:Akkurat-Light;-inkscape-font-specification:Akkurat-Light Ultra-Light"
         id="path3997"
         inkscape:connector-curvature="0" />
    </g>
  </g>
</svg>
